<?xml version="1.0" encoding="UTF-8"?><svg xmlns="http://www.w3.org/2000/svg" xmlns:xlink="http://www.w3.org/1999/xlink" color-interpolation="auto" color-rendering="auto" fill="rgb(0,0,0)" fill-opacity="0" font-family="'Dialog'" font-size="12px" font-style="normal" font-weight="normal" height="729" image-rendering="auto" shape-rendering="auto" stroke="rgb(0,0,0)" stroke-dasharray="none" stroke-dashoffset="0" stroke-linecap="square" stroke-linejoin="miter" stroke-miterlimit="10" stroke-opacity="0" stroke-width="1" text-rendering="auto" viewbox="0 0 612 729" width="612"><!--Generated by the Batik Graphics2D SVG Generator--><defs id="genericDefs"/><g><defs id="defs1"><clipPath clipPathUnits="userSpaceOnUse" id="eba954db-ab5d-46d0-9d47-ba08cdd005b1"><path d="M-7 -7 L31 -7 L31 31 L-7 31 L-7 -7 Z"/></clipPath><clipPath clipPathUnits="userSpaceOnUse" id="92b09d55-440b-4b4b-980b-60d8953623f7"><path d="M-7 -7 L31 -7 L31 31 L-7 31 L-7 -7 Z"/></clipPath><clipPath clipPathUnits="userSpaceOnUse" id="aeeeb552-16f6-454e-907f-7e9036e82178"><path d="M-7 -7 L91 -7 L91 51 L-7 51 L-7 -7 Z"/></clipPath><clipPath clipPathUnits="userSpaceOnUse" id="3e72731b-c3f8-484e-90e0-e9d7b0f2d4fe"><path d="M-7 -7 L91 -7 L91 51 L-7 51 L-7 -7 Z"/></clipPath><clipPath clipPathUnits="userSpaceOnUse" id="85c5d904-2dc7-4953-b599-e49465b270bf"><path d="M-7 -7 L148 -7 L148 51 L-7 51 L-7 -7 Z"/></clipPath><clipPath clipPathUnits="userSpaceOnUse" id="6d9e8baa-d25c-4247-a488-d7d5360b8d48"><path d="M-7 -7 L148 -7 L148 51 L-7 51 L-7 -7 Z"/></clipPath><clipPath clipPathUnits="userSpaceOnUse" id="47627cad-fbc2-4aca-8c40-0fa3ac8dab30"><path d="M-7 -7 L269 -7 L269 308 L-7 308 L-7 -7 Z"/></clipPath><clipPath clipPathUnits="userSpaceOnUse" id="3973313d-679a-464c-ac48-422267eb7e2c"><path d="M-7 -7 L269 -7 L269 308 L-7 308 L-7 -7 Z"/></clipPath><clipPath clipPathUnits="userSpaceOnUse" id="04168cf2-e26a-4aca-b549-0f2b5f8e4809"><path d="M-7 -7 L99 -7 L99 51 L-7 51 L-7 -7 Z"/></clipPath><clipPath clipPathUnits="userSpaceOnUse" id="0b6af2d7-fc16-4e38-8950-cd669e2ebaec"><path d="M-7 -7 L99 -7 L99 51 L-7 51 L-7 -7 Z"/></clipPath><clipPath clipPathUnits="userSpaceOnUse" id="9fbba81a-7b73-497c-9524-9daab401e77c"><path d="M-7 -7 L91 -7 L91 51 L-7 51 L-7 -7 Z"/></clipPath><clipPath clipPathUnits="userSpaceOnUse" id="a706441f-62c7-4369-b47b-c8a155a5c8a2"><path d="M-7 -7 L91 -7 L91 51 L-7 51 L-7 -7 Z"/></clipPath><clipPath clipPathUnits="userSpaceOnUse" id="9a4120a9-5716-4c9c-ad51-c9b767e24e6e"><path d="M-7 -7 L111 -7 L111 51 L-7 51 L-7 -7 Z"/></clipPath><clipPath clipPathUnits="userSpaceOnUse" id="3ee7cdbb-b519-4a58-ae73-d3f3966eebce"><path d="M-7 -7 L111 -7 L111 51 L-7 51 L-7 -7 Z"/></clipPath><clipPath clipPathUnits="userSpaceOnUse" id="8154cec7-095c-47f5-bb8f-286b0f00f6f6"><path d="M-7 -7 L91 -7 L91 51 L-7 51 L-7 -7 Z"/></clipPath><clipPath clipPathUnits="userSpaceOnUse" id="0ba49204-2c2f-4961-b675-157cd835a068"><path d="M-7 -7 L91 -7 L91 51 L-7 51 L-7 -7 Z"/></clipPath><clipPath clipPathUnits="userSpaceOnUse" id="df97f493-d43e-484b-be70-62b9a15539ef"><path d="M-7 -7 L91 -7 L91 51 L-7 51 L-7 -7 Z"/></clipPath><clipPath clipPathUnits="userSpaceOnUse" id="ebb75bd0-0ee6-445d-a6b5-e2d75636b277"><path d="M-7 -7 L91 -7 L91 51 L-7 51 L-7 -7 Z"/></clipPath><clipPath clipPathUnits="userSpaceOnUse" id="0ca3a3b1-e167-4ad2-9f07-6021266bec56"><path d="M-7 -7 L91 -7 L91 51 L-7 51 L-7 -7 Z"/></clipPath><clipPath clipPathUnits="userSpaceOnUse" id="a1cf986b-fe8a-4f3f-b533-8b5f0dc400de"><path d="M-7 -7 L91 -7 L91 51 L-7 51 L-7 -7 Z"/></clipPath><clipPath clipPathUnits="userSpaceOnUse" id="855b23bd-ad31-41e2-9329-74d90271039b"><path d="M-7 -7 L31 -7 L31 31 L-7 31 L-7 -7 Z"/></clipPath><clipPath clipPathUnits="userSpaceOnUse" id="192b4d33-4e55-40a4-ac7b-e66fc6b659f8"><path d="M-7 -7 L31 -7 L31 31 L-7 31 L-7 -7 Z"/></clipPath><clipPath clipPathUnits="userSpaceOnUse" id="4257c9bd-bbda-4404-8c26-fa88d831af82"><path d="M-7 -7 L31 -7 L31 31 L-7 31 L-7 -7 Z"/></clipPath><clipPath clipPathUnits="userSpaceOnUse" id="00f6659f-860d-41ba-a344-543709373ca4"><path d="M-7 -7 L31 -7 L31 31 L-7 31 L-7 -7 Z"/></clipPath><clipPath clipPathUnits="userSpaceOnUse" id="c9b41c05-b495-49b6-a847-2310fe8158f7"><path d="M-80 -15 L160 -15 L160 30 L-80 30 L-80 -15 Z"/></clipPath><clipPath clipPathUnits="userSpaceOnUse" id="295cc06c-a8b0-4afd-8e4c-42bf05308faa"><path d="M-100 -15 L200 -15 L200 30 L-100 30 L-100 -15 Z"/></clipPath><clipPath clipPathUnits="userSpaceOnUse" id="ea99945a-9a33-4740-9c99-d639b2637a14"><path d="M-80 -30 L160 -30 L160 60 L-80 60 L-80 -30 Z"/></clipPath><clipPath clipPathUnits="userSpaceOnUse" id="ec088a6e-6916-420d-87dd-10c5d9f0f864"><path d="M-88 -30 L176 -30 L176 60 L-88 60 L-88 -30 Z"/></clipPath><clipPath clipPathUnits="userSpaceOnUse" id="9b790dbd-9ea8-4324-8b09-1cfba9efb093"><path d="M-258 -15 L516 -15 L516 30 L-258 30 L-258 -15 Z"/></clipPath><clipPath clipPathUnits="userSpaceOnUse" id="9b76c7de-c9fd-477a-89fb-1761474336a2"><path d="M-137 -16 L274 -16 L274 32 L-137 32 L-137 -16 Z"/></clipPath><clipPath clipPathUnits="userSpaceOnUse" id="e72ae273-eef7-441d-b092-9166b3a4915d"><path d="M-80 -16 L160 -16 L160 32 L-80 32 L-80 -16 Z"/></clipPath><clipPath clipPathUnits="userSpaceOnUse" id="ede0130b-ec58-4304-b696-8da5ea8324a4"><path d="M0 0 L87 0 L87 133 L0 133 L0 0 Z"/></clipPath><clipPath clipPathUnits="userSpaceOnUse" id="6a168c94-92fe-4e66-9b2b-b4393758e2a7"><path d="M0 0 L0 44 L28 44 L28 80 L0 80 L0 133 L87 133 L87 0 Z"/></clipPath><clipPath clipPathUnits="userSpaceOnUse" id="9dce3c5c-77e8-448b-b4f7-b330d0385922"><path d="M0 -0 L60 -0 L60 95 L0 95 L0 -0 Z"/></clipPath><clipPath clipPathUnits="userSpaceOnUse" id="cd58079a-d274-42c9-9b98-1d3b43a2c8e5"><path d="M0 -0 L0 33 L18 33 L18 55 L0 55 L0 95 L60 95 L60 -0 Z"/></clipPath><clipPath clipPathUnits="userSpaceOnUse" id="a0745276-a229-41fd-9bbf-44a58072d5f5"><path d="M0 -0 L87 -0 L87 144 L0 144 L0 -0 Z"/></clipPath><clipPath clipPathUnits="userSpaceOnUse" id="015de571-23a8-4c92-b36b-f35b5811a5cd"><path d="M0 -0 L0 59 L33 59 L33 73 L0 73 L0 144 L87 144 L87 -0 Z"/></clipPath><clipPath clipPathUnits="userSpaceOnUse" id="d3b40c85-221c-408a-9a5d-1ad5f5cb049f"><path d="M0 0 L87 0 L87 128 L0 128 L0 0 Z"/></clipPath><clipPath clipPathUnits="userSpaceOnUse" id="476159d6-89f1-4d1c-8cfd-4fe65be69005"><path d="M0 0 L0 45 L32 45 L32 78 L0 78 L0 126 L33 126 L33 128 L87 128 L87 0 Z"/></clipPath><clipPath clipPathUnits="userSpaceOnUse" id="cfaacae3-bc90-4cc4-b681-43808c1e6dda"><path d="M0 0 L104 0 L104 144 L0 144 L0 0 Z"/></clipPath><clipPath clipPathUnits="userSpaceOnUse" id="46cc2ded-d6d9-4726-a1d5-349f7831f523"><path d="M40 0 L40 4 L0 4 L0 52 L41 52 L41 85 L0 85 L0 144 L104 144 L104 0 Z"/></clipPath><clipPath clipPathUnits="userSpaceOnUse" id="775e8cf4-4aa1-4a6d-84d1-d6ad434e9d7b"><path d="M0 -0 L87 -0 L87 110 L0 110 L0 -0 Z"/></clipPath><clipPath clipPathUnits="userSpaceOnUse" id="f5b932d4-e06a-46be-9e88-7bbefbf3b847"><path d="M0 -0 L0 108 L34 108 L34 110 L87 110 L87 -0 Z"/></clipPath><clipPath clipPathUnits="userSpaceOnUse" id="7aa1a1c1-395c-4f76-86a2-2f58cb20e014"><path d="M0 -0 L273 -0 L273 272 L0 272 L0 -0 Z"/></clipPath><clipPath clipPathUnits="userSpaceOnUse" id="9f34ac8d-aa98-4335-8f19-efea8fcce806"><path d="M218 13 L218 28 L58 28 L58 13 ZM200 215 L200 249 L94 249 L94 215 ZM0 -0 L0 272 L273 272 L273 -0 Z"/></clipPath><clipPath clipPathUnits="userSpaceOnUse" id="cf59aacc-c0af-4c67-9e06-8a6555985d50"><path d="M0 0 L191 0 L191 87 L0 87 L0 0 Z"/></clipPath><clipPath clipPathUnits="userSpaceOnUse" id="f3d1feeb-bb04-4558-951c-5f24610a38ca"><path d="M0 0 L0 87 L191 87 L191 0 L148 0 L148 34 L42 34 L42 0 Z"/></clipPath><clipPath clipPathUnits="userSpaceOnUse" id="862a3cb0-b5d9-40a1-908c-b0fc6f145019"><path d="M0 0 L104 0 L104 192 L0 192 L0 0 Z"/></clipPath><clipPath clipPathUnits="userSpaceOnUse" id="ecb34c18-a66a-43f0-9716-c57a5f3001be"><path d="M8 0 L8 4 L0 4 L0 192 L104 192 L104 138 L58 138 L58 85 L104 85 L104 0 Z"/></clipPath><clipPath clipPathUnits="userSpaceOnUse" id="d2f3ec72-d9f8-4fad-858e-061cee3353a0"><path d="M0 0 L104 0 L104 192 L0 192 L0 0 Z"/></clipPath><clipPath clipPathUnits="userSpaceOnUse" id="fef139d3-4d9c-4edb-be09-6d36ef03fc48"><path d="M83 0 L83 4 L0 4 L0 83 L42 83 L42 141 L0 141 L0 192 L104 192 L104 0 Z"/></clipPath><clipPath clipPathUnits="userSpaceOnUse" id="f9de745e-291b-483f-a5ec-1dd9250ea95c"><path d="M0 -0 L104 -0 L104 166 L0 166 L0 -0 Z"/></clipPath><clipPath clipPathUnits="userSpaceOnUse" id="1b87c8f5-6bae-4689-a6db-9fdfa296161c"><path d="M0 -0 L0 166 L104 166 L104 102 L58 102 L58 64 L104 64 L104 9 L26 9 L26 -0 Z"/></clipPath><clipPath clipPathUnits="userSpaceOnUse" id="2920ffdd-48d1-4008-89d7-b8c4d6c7ebe4"><path d="M0 -0 L233 -0 L233 175 L0 175 L0 -0 Z"/></clipPath><clipPath clipPathUnits="userSpaceOnUse" id="a54c86ca-5655-46cc-a549-1b7f158bdf05"><path d="M73 -0 L73 12 L0 12 L0 65 L35 65 L35 103 L0 103 L0 175 L233 175 L233 102 L196 102 L196 64 L233 64 L233 9 L164 9 L164 -0 Z"/></clipPath><clipPath clipPathUnits="userSpaceOnUse" id="fe392982-e57a-48ec-bfa2-8116c694c3a9"><path d="M0 0 L301 0 L301 410 L0 410 L0 0 Z"/></clipPath><clipPath clipPathUnits="userSpaceOnUse" id="e2bf1f77-63eb-44c9-8c6e-c4e7d7af15a7"><path d="M143 191 L143 244 L17 244 L17 191 ZM148 299 L148 337 L49 337 L49 299 ZM0 0 L0 410 L301 410 L301 215 L248 215 L248 180 L301 180 L301 0 L211 0 L211 22 L105 22 L105 0 Z"/></clipPath><clipPath clipPathUnits="userSpaceOnUse" id="f56b7b44-ff04-4273-81d8-037c59c76ce1"><path d="M-129 -35 L258 -35 L258 70 L-129 70 L-129 -35 Z"/></clipPath><clipPath clipPathUnits="userSpaceOnUse" id="447af6a1-a919-4790-9c67-3e4981f80c87"><path d="M-112 -38 L224 -38 L224 76 L-112 76 L-112 -38 Z"/></clipPath><clipPath clipPathUnits="userSpaceOnUse" id="c030fa7c-0483-4dad-b64a-68a498613e94"><path d="M-99 -38 L198 -38 L198 76 L-99 76 L-99 -38 Z"/></clipPath><clipPath clipPathUnits="userSpaceOnUse" id="7f2eef46-0c7d-46c3-94ff-445f1db09771"><path d="M-115 -58 L230 -58 L230 116 L-115 116 L-115 -58 Z"/></clipPath><clipPath clipPathUnits="userSpaceOnUse" id="2b2fca1f-88f2-4afe-b56c-413b82927b78"><path d="M-126 -53 L252 -53 L252 106 L-126 106 L-126 -53 Z"/></clipPath><clipPath clipPathUnits="userSpaceOnUse" id="348686b4-a981-4be1-9ab2-3c442d3d21c3"><path d="M-106 -34 L212 -34 L212 68 L-106 68 L-106 -34 Z"/></clipPath><clipPath clipPathUnits="userSpaceOnUse" id="4747c1c9-fa67-40d3-a1a1-b8a38ed5121e"><path d="M-160 -15 L320 -15 L320 30 L-160 30 L-160 -15 Z"/></clipPath><clipPath clipPathUnits="userSpaceOnUse" id="7e9d0256-6fa2-4018-9d3a-0092a7a35def"><path d="M-123 -33 L246 -33 L246 66 L-123 66 L-123 -33 Z"/></clipPath><clipPath clipPathUnits="userSpaceOnUse" id="44cde8cf-7642-4370-9b84-621f13a33dc2"><path d="M-111 -33 L222 -33 L222 66 L-111 66 L-111 -33 Z"/></clipPath><clipPath clipPathUnits="userSpaceOnUse" id="7158e539-4a8b-420d-a666-e8b656af1e76"><path d="M-181 -14 L362 -14 L362 28 L-181 28 L-181 -14 Z"/></clipPath><clipPath clipPathUnits="userSpaceOnUse" id="8cdec62e-f39e-4d28-8745-2928b9273416"><path d="M-191 -22 L382 -22 L382 44 L-191 44 L-191 -22 Z"/></clipPath><clipPath clipPathUnits="userSpaceOnUse" id="f85c541d-67c8-4b7a-a2de-e511585c0080"><path d="M-100 -36 L200 -36 L200 72 L-100 72 L-100 -36 Z"/></clipPath></defs><g fill="white" fill-opacity="1" stroke="white" stroke-opacity="1" text-rendering="geometricPrecision"><rect height="729" stroke="none" width="612" x="0" y="0"/></g><g data="{&quot;name&quot;:&quot;&quot;,&quot;modelType&quot;:&quot;InitialPseudoState&quot;}" hyper="" model-id="shape-PuV.GvmGAqDIrw2P" style="pointer-events: auto; cursor: pointer;"><g fill="black" fill-opacity="1" font-family="sans-serif" font-size="11px" image-rendering="optimizeQuality" stroke="black" stroke-opacity="1" text-rendering="geometricPrecision" transform="translate(195.2778,1.8333)"><circle clip-path="url(#92b09d55-440b-4b4b-980b-60d8953623f7)" cx="9.5" cy="9.5" r="9.5" stroke="none"/></g></g><g data="{&quot;name&quot;:&quot;Creada&quot;,&quot;modelType&quot;:&quot;State2&quot;}" hyper="" model-id="shape-Q2t.GvmGAqDIrw2d" style="pointer-events: auto; cursor: pointer;"><g fill="black" fill-opacity="1" font-family="sans-serif" font-size="11px" image-rendering="optimizeQuality" stroke="black" stroke-linecap="butt" stroke-linejoin="round" stroke-miterlimit="0" stroke-opacity="1" text-rendering="geometricPrecision" transform="translate(163.2778,66.8333)"><rect clip-path="url(#3e72731b-c3f8-484e-90e0-e9d7b0f2d4fe)" fill="none" height="40" rx="10" ry="10" width="80" x="0" y="0"/></g></g><g data="{&quot;name&quot;:&quot;Pendiente de revisión&quot;,&quot;modelType&quot;:&quot;State2&quot;}" hyper="" model-id="shape-R_d.GvmGAqDIrw2o" style="pointer-events: auto; cursor: pointer;"><g fill="black" fill-opacity="1" font-family="sans-serif" font-size="11px" image-rendering="optimizeQuality" stroke="black" stroke-linecap="butt" stroke-linejoin="round" stroke-miterlimit="0" stroke-opacity="1" text-rendering="geometricPrecision" transform="translate(135.2778,143.8333)"><rect clip-path="url(#6d9e8baa-d25c-4247-a488-d7d5360b8d48)" fill="none" height="40" rx="10" ry="10" width="137" x="0" y="0"/></g></g><g data="{&quot;name&quot;:&quot;En revisión&quot;,&quot;modelType&quot;:&quot;State2&quot;}" hyper="" model-id="shape-_cXBGvmGAqDIrw9." style="pointer-events: auto; cursor: pointer;"><g fill="black" fill-opacity="1" font-family="sans-serif" font-size="11px" image-rendering="optimizeQuality" stroke="black" stroke-linecap="butt" stroke-linejoin="round" stroke-miterlimit="0" stroke-opacity="1" text-rendering="geometricPrecision" transform="translate(76.2778,240.8333)"><rect clip-path="url(#3973313d-679a-464c-ac48-422267eb7e2c)" fill="none" height="297" rx="10" ry="10" width="258" x="0" y="0"/></g></g><g data="{&quot;name&quot;:&quot;Validar identidad&quot;,&quot;modelType&quot;:&quot;State2&quot;}" hyper="" model-id="shape-tYIhGvmGAqDIrw_i" style="pointer-events: auto; cursor: pointer;"><g fill="black" fill-opacity="1" font-family="sans-serif" font-size="11px" image-rendering="optimizeQuality" stroke="black" stroke-linecap="butt" stroke-linejoin="round" stroke-miterlimit="0" stroke-opacity="1" text-rendering="geometricPrecision" transform="translate(159.2778,312.8333)"><rect clip-path="url(#0b6af2d7-fc16-4e38-8950-cd669e2ebaec)" fill="none" height="40" rx="10" ry="10" width="88" x="0" y="0"/></g></g><g data="{&quot;name&quot;:&quot;Revisar información&quot;,&quot;modelType&quot;:&quot;State2&quot;}" hyper="" model-id="shape-XHEhGvmGAqDIrxAQ" style="pointer-events: auto; cursor: pointer;"><g fill="black" fill-opacity="1" font-family="sans-serif" font-size="11px" image-rendering="optimizeQuality" stroke="black" stroke-linecap="butt" stroke-linejoin="round" stroke-miterlimit="0" stroke-opacity="1" text-rendering="geometricPrecision" transform="translate(165.2778,394.8333)"><rect clip-path="url(#a706441f-62c7-4369-b47b-c8a155a5c8a2)" fill="none" height="40" rx="10" ry="10" width="80" x="0" y="0"/></g></g><g data="{&quot;name&quot;:&quot;Evaluar solicitud&quot;,&quot;modelType&quot;:&quot;State2&quot;}" hyper="" model-id="shape-oJshGvmGAqDIrxAt" style="pointer-events: auto; cursor: pointer;"><g fill="black" fill-opacity="1" font-family="sans-serif" font-size="11px" image-rendering="optimizeQuality" stroke="black" stroke-linecap="butt" stroke-linejoin="round" stroke-miterlimit="0" stroke-opacity="1" text-rendering="geometricPrecision" transform="translate(153.2778,475.8333)"><rect clip-path="url(#3ee7cdbb-b519-4a58-ae73-d3f3966eebce)" fill="none" height="40" rx="10" ry="10" width="100" x="0" y="0"/></g></g><g data="{&quot;name&quot;:&quot;Aprovada&quot;,&quot;modelType&quot;:&quot;State2&quot;}" hyper="" model-id="shape-N4PhGvmGAqDIrxEu" style="pointer-events: auto; cursor: pointer;"><g fill="black" fill-opacity="1" font-family="sans-serif" font-size="11px" image-rendering="optimizeQuality" stroke="black" stroke-linecap="butt" stroke-linejoin="round" stroke-miterlimit="0" stroke-opacity="1" text-rendering="geometricPrecision" transform="translate(94.2778,604.8333)"><rect clip-path="url(#0ba49204-2c2f-4961-b675-157cd835a068)" fill="none" height="40" rx="10" ry="10" width="80" x="0" y="0"/></g></g><g data="{&quot;name&quot;:&quot;Rechazada&quot;,&quot;modelType&quot;:&quot;State2&quot;}" hyper="" model-id="shape-hHQRGvmGAqDIrxFa" style="pointer-events: auto; cursor: pointer;"><g fill="black" fill-opacity="1" font-family="sans-serif" font-size="11px" image-rendering="optimizeQuality" stroke="black" stroke-linecap="butt" stroke-linejoin="round" stroke-miterlimit="0" stroke-opacity="1" text-rendering="geometricPrecision" transform="translate(232.2778,604.8333)"><rect clip-path="url(#ebb75bd0-0ee6-445d-a6b5-e2d75636b277)" fill="none" height="40" rx="10" ry="10" width="80" x="0" y="0"/></g></g><g data="{&quot;name&quot;:&quot;Cancelada&quot;,&quot;modelType&quot;:&quot;State2&quot;}" hyper="" model-id="shape-pdIRGvmGAqDIrxFp" style="pointer-events: auto; cursor: pointer;"><g fill="black" fill-opacity="1" font-family="sans-serif" font-size="11px" image-rendering="optimizeQuality" stroke="black" stroke-linecap="butt" stroke-linejoin="round" stroke-miterlimit="0" stroke-opacity="1" text-rendering="geometricPrecision" transform="translate(440.2778,368.8333)"><rect clip-path="url(#a1cf986b-fe8a-4f3f-b533-8b5f0dc400de)" fill="none" height="40" rx="10" ry="10" width="80" x="0" y="0"/></g></g><g data="{&quot;name&quot;:&quot;&quot;,&quot;modelType&quot;:&quot;FinalState2&quot;}" hyper="" model-id="shape-fToRGvmGAqDIrxF1" style="pointer-events: auto; cursor: pointer;"><g fill="black" fill-opacity="1" font-family="sans-serif" font-size="11px" image-rendering="optimizeQuality" stroke="black" stroke-opacity="1" text-rendering="geometricPrecision" transform="translate(262.2778,705.8333)"><circle clip-path="url(#192b4d33-4e55-40a4-ac7b-e66fc6b659f8)" cx="10" cy="10" r="7" stroke="none"/><circle clip-path="url(#192b4d33-4e55-40a4-ac7b-e66fc6b659f8)" cx="10" cy="10" fill="none" r="10" stroke-linecap="butt" stroke-linejoin="round" stroke-miterlimit="0"/></g></g><g data="{&quot;name&quot;:&quot;&quot;,&quot;modelType&quot;:&quot;InitialPseudoState&quot;}" hyper="" model-id="shape-RdYRGvmGAqDIrxF." style="pointer-events: auto; cursor: pointer;"><g fill="black" fill-opacity="1" font-family="sans-serif" font-size="11px" image-rendering="optimizeQuality" stroke="black" stroke-opacity="1" text-rendering="geometricPrecision" transform="translate(194.2778,270.8333)"><circle clip-path="url(#00f6659f-860d-41ba-a344-543709373ca4)" cx="9.5" cy="9.5" r="9.5" stroke="none"/></g></g><g fill="black" fill-opacity="1" font-family="sans-serif" font-size="11px" image-rendering="optimizeQuality" stroke="black" stroke-opacity="1" text-rendering="geometricPrecision" transform="translate(440.2778,368.8333)"><text clip-path="url(#c9b41c05-b495-49b6-a847-2310fe8158f7)" stroke="none" x="13" xml:space="preserve" y="12">Cancelada</text></g><g fill="black" fill-opacity="1" font-family="sans-serif" font-size="11px" image-rendering="optimizeQuality" stroke="black" stroke-opacity="1" text-rendering="geometricPrecision" transform="translate(232.2778,604.8333)"><text clip-path="url(#c9b41c05-b495-49b6-a847-2310fe8158f7)" stroke="none" x="12" xml:space="preserve" y="12">Rechazada</text></g><g fill="black" fill-opacity="1" font-family="sans-serif" font-size="11px" image-rendering="optimizeQuality" stroke="black" stroke-opacity="1" text-rendering="geometricPrecision" transform="translate(94.2778,604.8333)"><text clip-path="url(#c9b41c05-b495-49b6-a847-2310fe8158f7)" stroke="none" x="15" xml:space="preserve" y="12">Aprovada</text></g><g fill="black" fill-opacity="1" font-family="sans-serif" font-size="11px" image-rendering="optimizeQuality" stroke="black" stroke-opacity="1" text-rendering="geometricPrecision" transform="translate(153.2778,475.8333)"><text clip-path="url(#295cc06c-a8b0-4afd-8e4c-42bf05308faa)" stroke="none" x="9" xml:space="preserve" y="12">Evaluar solicitud</text></g><g fill="black" fill-opacity="1" font-family="sans-serif" font-size="11px" image-rendering="optimizeQuality" stroke="black" stroke-opacity="1" text-rendering="geometricPrecision" transform="translate(165.2778,394.8333)"><text clip-path="url(#ea99945a-9a33-4740-9c99-d639b2637a14)" stroke="none" x="20" xml:space="preserve" y="12">Revisar</text><text clip-path="url(#ea99945a-9a33-4740-9c99-d639b2637a14)" stroke="none" x="11" xml:space="preserve" y="27">información</text></g><g fill="black" fill-opacity="1" font-family="sans-serif" font-size="11px" image-rendering="optimizeQuality" stroke="black" stroke-opacity="1" text-rendering="geometricPrecision" transform="translate(159.2778,312.8333)"><text clip-path="url(#ec088a6e-6916-420d-87dd-10c5d9f0f864)" stroke="none" x="26" xml:space="preserve" y="12">Validar</text><text clip-path="url(#ec088a6e-6916-420d-87dd-10c5d9f0f864)" stroke="none" x="21" xml:space="preserve" y="27">identidad</text></g><g fill="black" fill-opacity="1" font-family="sans-serif" font-size="11px" image-rendering="optimizeQuality" stroke="black" stroke-opacity="1" text-rendering="geometricPrecision" transform="translate(76.2778,240.8333)"><text clip-path="url(#9b790dbd-9ea8-4324-8b09-1cfba9efb093)" stroke="none" x="101" xml:space="preserve" y="12">En revisión</text></g><g fill="black" fill-opacity="1" font-family="sans-serif" font-size="11px" image-rendering="optimizeQuality" stroke="black" stroke-opacity="1" text-rendering="geometricPrecision" transform="translate(135.2778,143.8333)"><text clip-path="url(#9b76c7de-c9fd-477a-89fb-1761474336a2)" stroke="none" x="15" xml:space="preserve" y="12">Pendiente de revisión</text></g><g fill="black" fill-opacity="1" font-family="sans-serif" font-size="11px" image-rendering="optimizeQuality" stroke="black" stroke-opacity="1" text-rendering="geometricPrecision" transform="translate(163.2778,66.8333)"><text clip-path="url(#e72ae273-eef7-441d-b092-9166b3a4915d)" stroke="none" x="21" xml:space="preserve" y="12">Creada</text></g><g data="{&quot;name&quot;:&quot;crearSolicitud / registrarSolicitud()&quot;,&quot;modelType&quot;:&quot;Transition2&quot;}" hyper="" model-id="connector-akFBGvmGAqDIrw7t" style="pointer-events: auto; cursor: pointer;"><g fill="black" fill-opacity="1" font-family="sans-serif" font-size="11px" image-rendering="optimizeQuality" stroke="black" stroke-linecap="butt" stroke-linejoin="round" stroke-opacity="1" text-rendering="geometricPrecision" transform="translate(163.2778,-20.1667)"><line clip-path="url(#6a168c94-92fe-4e66-9b2b-b4393758e2a7)" fill="none" x1="42" x2="42" y1="42" y2="88"/><line clip-path="url(#6a168c94-92fe-4e66-9b2b-b4393758e2a7)" fill="none" x1="42" x2="48" y1="88" y2="76"/><line clip-path="url(#6a168c94-92fe-4e66-9b2b-b4393758e2a7)" fill="none" x1="42" x2="36" y1="88" y2="76"/></g></g><g data="{&quot;name&quot;:&quot;enviarSolicitud / notificarPropietario()&quot;,&quot;modelType&quot;:&quot;Transition2&quot;}" hyper="" model-id="connector-21tBGvmGAqDIrw8c" style="pointer-events: auto; cursor: pointer;"><g fill="black" fill-opacity="1" font-family="sans-serif" font-size="11px" image-rendering="optimizeQuality" stroke="black" stroke-linecap="butt" stroke-linejoin="round" stroke-opacity="1" text-rendering="geometricPrecision" transform="translate(175.2778,79.8333)"><line clip-path="url(#cd58079a-d274-42c9-9b98-1d3b43a2c8e5)" fill="none" x1="28" x2="28" y1="28" y2="63"/><line clip-path="url(#cd58079a-d274-42c9-9b98-1d3b43a2c8e5)" fill="none" x1="28" x2="34" y1="63" y2="51"/><line clip-path="url(#cd58079a-d274-42c9-9b98-1d3b43a2c8e5)" fill="none" x1="28" x2="22" y1="63" y2="51"/></g></g><g data="{&quot;name&quot;:&quot;iniciarRevision / cargarSolicitud()&quot;,&quot;modelType&quot;:&quot;Transition2&quot;}" hyper="" model-id="connector-mB3BGvmGAqDIrw.T" style="pointer-events: auto; cursor: pointer;"><g fill="black" fill-opacity="1" font-family="sans-serif" font-size="11px" image-rendering="optimizeQuality" stroke="black" stroke-linecap="butt" stroke-linejoin="round" stroke-opacity="1" text-rendering="geometricPrecision" transform="translate(163.2778,142.8333)"><line clip-path="url(#015de571-23a8-4c92-b36b-f35b5811a5cd)" fill="none" x1="42" x2="42" y1="42" y2="98"/><line clip-path="url(#015de571-23a8-4c92-b36b-f35b5811a5cd)" fill="none" x1="42" x2="48" y1="98" y2="86"/><line clip-path="url(#015de571-23a8-4c92-b36b-f35b5811a5cd)" fill="none" x1="42" x2="36" y1="98" y2="86"/></g></g><g data="{&quot;name&quot;:&quot;identidadValidada / cargarInformacion()&quot;,&quot;modelType&quot;:&quot;Transition2&quot;}" hyper="" model-id="connector-FaRhGvmGAqDIrxDv" style="pointer-events: auto; cursor: pointer;"><g fill="black" fill-opacity="1" font-family="sans-serif" font-size="11px" image-rendering="optimizeQuality" stroke="black" stroke-linecap="butt" stroke-linejoin="round" stroke-opacity="1" text-rendering="geometricPrecision" transform="translate(165.2778,310.8333)"><line clip-path="url(#476159d6-89f1-4d1c-8cfd-4fe65be69005)" fill="none" x1="42" x2="42" y1="42" y2="83"/><line clip-path="url(#476159d6-89f1-4d1c-8cfd-4fe65be69005)" fill="none" x1="42" x2="48" y1="83" y2="71"/><line clip-path="url(#476159d6-89f1-4d1c-8cfd-4fe65be69005)" fill="none" x1="42" x2="36" y1="83" y2="71"/></g></g><g data="{&quot;name&quot;:&quot;informacionRevisada / iniciarEvaluacion()&quot;,&quot;modelType&quot;:&quot;Transition2&quot;}" hyper="" model-id="connector-ZQxhGvmGAqDIrxD." style="pointer-events: auto; cursor: pointer;"><g fill="black" fill-opacity="1" font-family="sans-serif" font-size="11px" image-rendering="optimizeQuality" stroke="black" stroke-linecap="butt" stroke-linejoin="round" stroke-opacity="1" text-rendering="geometricPrecision" transform="translate(157.2778,384.8333)"><line clip-path="url(#46cc2ded-d6d9-4726-a1d5-349f7831f523)" fill="none" x1="50" x2="50" y1="50" y2="90"/><line clip-path="url(#46cc2ded-d6d9-4726-a1d5-349f7831f523)" fill="none" x1="50" x2="56" y1="90" y2="78"/><line clip-path="url(#46cc2ded-d6d9-4726-a1d5-349f7831f523)" fill="none" x1="50" x2="44" y1="90" y2="78"/></g></g><g data="{&quot;modelType&quot;:&quot;Transition2&quot;}" hyper="" model-id="connector-GiERGvmGAqDIrxGP" style="pointer-events: auto; cursor: pointer;"><g fill="black" fill-opacity="1" font-family="sans-serif" font-size="11px" image-rendering="optimizeQuality" stroke="black" stroke-linecap="butt" stroke-linejoin="round" stroke-opacity="1" text-rendering="geometricPrecision" transform="translate(163.2778,247.8333)"><line clip-path="url(#f5b932d4-e06a-46be-9e88-7bbefbf3b847)" fill="none" x1="42" x2="42" y1="42" y2="64"/><line clip-path="url(#f5b932d4-e06a-46be-9e88-7bbefbf3b847)" fill="none" x1="42" x2="48" y1="64" y2="52"/><line clip-path="url(#f5b932d4-e06a-46be-9e88-7bbefbf3b847)" fill="none" x1="42" x2="36" y1="64" y2="52"/></g></g><g data="{&quot;name&quot;:&quot;cancelar / actualizarEstado()&quot;,&quot;modelType&quot;:&quot;Transition2&quot;}" hyper="" model-id="connector-qkCRGvmGAqDIrxG8" style="pointer-events: auto; cursor: pointer;"><g fill="black" fill-opacity="1" font-family="sans-serif" font-size="11px" image-rendering="optimizeQuality" stroke="black" stroke-linecap="butt" stroke-linejoin="round" stroke-opacity="1" text-rendering="geometricPrecision" transform="translate(242.2778,132.8333)"><line clip-path="url(#9f34ac8d-aa98-4335-8f19-efea8fcce806)" fill="none" x1="31" x2="238" y1="31" y2="31"/><line clip-path="url(#9f34ac8d-aa98-4335-8f19-efea8fcce806)" fill="none" x1="238" x2="238" y1="31" y2="236"/><line clip-path="url(#9f34ac8d-aa98-4335-8f19-efea8fcce806)" fill="none" x1="238" x2="244" y1="236" y2="224"/><line clip-path="url(#9f34ac8d-aa98-4335-8f19-efea8fcce806)" fill="none" x1="238" x2="232" y1="236" y2="224"/></g></g><g data="{&quot;name&quot;:&quot;cancelar / actualizarEstado()&quot;,&quot;modelType&quot;:&quot;Transition2&quot;}" hyper="" model-id="connector-ncmRGvmGAqDIrxHx" style="pointer-events: auto; cursor: pointer;"><g fill="black" fill-opacity="1" font-family="sans-serif" font-size="11px" image-rendering="optimizeQuality" stroke="black" stroke-linecap="butt" stroke-linejoin="round" stroke-opacity="1" text-rendering="geometricPrecision" transform="translate(294.2778,347.8333)"><line clip-path="url(#f3d1feeb-bb04-4558-951c-5f24610a38ca)" fill="none" x1="42" x2="145" y1="42" y2="42"/><line clip-path="url(#f3d1feeb-bb04-4558-951c-5f24610a38ca)" fill="none" x1="145" x2="133" y1="42" y2="36"/><line clip-path="url(#f3d1feeb-bb04-4558-951c-5f24610a38ca)" fill="none" x1="145" x2="133" y1="42" y2="48"/></g></g><g data="{&quot;name&quot;:&quot;rechazar [noCumpleRequisitos] / notificarRechazo()&quot;,&quot;modelType&quot;:&quot;Transition2&quot;}" hyper="" model-id="connector-tEJRGvmGAqDIrxIi" style="pointer-events: auto; cursor: pointer;"><g fill="black" fill-opacity="1" font-family="sans-serif" font-size="11px" image-rendering="optimizeQuality" stroke="black" stroke-linecap="butt" stroke-linejoin="round" stroke-opacity="1" text-rendering="geometricPrecision" transform="translate(190.2778,465.8333)"><line clip-path="url(#ecb34c18-a66a-43f0-9716-c57a5f3001be)" fill="none" x1="50" x2="50" y1="50" y2="138"/><line clip-path="url(#ecb34c18-a66a-43f0-9716-c57a5f3001be)" fill="none" x1="50" x2="56" y1="138" y2="126"/><line clip-path="url(#ecb34c18-a66a-43f0-9716-c57a5f3001be)" fill="none" x1="50" x2="44" y1="138" y2="126"/></g></g><g data="{&quot;name&quot;:&quot;aprobar [cumpleRequisitos] / notificarAprobacion()&quot;,&quot;modelType&quot;:&quot;Transition2&quot;}" hyper="" model-id="connector-c.ZRGvmGAqDIrxJD" style="pointer-events: auto; cursor: pointer;"><g fill="black" fill-opacity="1" font-family="sans-serif" font-size="11px" image-rendering="optimizeQuality" stroke="black" stroke-linecap="butt" stroke-linejoin="round" stroke-opacity="1" text-rendering="geometricPrecision" transform="translate(115.2778,465.8333)"><line clip-path="url(#fef139d3-4d9c-4edb-be09-6d36ef03fc48)" fill="none" x1="50" x2="50" y1="50" y2="138"/><line clip-path="url(#fef139d3-4d9c-4edb-be09-6d36ef03fc48)" fill="none" x1="50" x2="56" y1="138" y2="126"/><line clip-path="url(#fef139d3-4d9c-4edb-be09-6d36ef03fc48)" fill="none" x1="50" x2="44" y1="138" y2="126"/></g></g><g data="{&quot;name&quot;:&quot;cerrarCaso / archivarSolicitud()&quot;,&quot;modelType&quot;:&quot;Transition2&quot;}" hyper="" model-id="connector-rYvRGvmGAqDIrxKK" style="pointer-events: auto; cursor: pointer;"><g fill="black" fill-opacity="1" font-family="sans-serif" font-size="11px" image-rendering="optimizeQuality" stroke="black" stroke-linecap="butt" stroke-linejoin="round" stroke-opacity="1" text-rendering="geometricPrecision" transform="translate(222.2778,594.8333)"><line clip-path="url(#1b87c8f5-6bae-4689-a6db-9fdfa296161c)" fill="none" x1="50" x2="50" y1="50" y2="112"/><line clip-path="url(#1b87c8f5-6bae-4689-a6db-9fdfa296161c)" fill="none" x1="50" x2="56" y1="112" y2="100"/><line clip-path="url(#1b87c8f5-6bae-4689-a6db-9fdfa296161c)" fill="none" x1="50" x2="44" y1="112" y2="100"/></g></g><g data="{&quot;name&quot;:&quot;confirmarAdopcion / cerrarSolicitud()&quot;,&quot;modelType&quot;:&quot;Transition2&quot;}" hyper="" model-id="connector-pjvRGvmGAqDIrxKZ" style="pointer-events: auto; cursor: pointer;"><g fill="black" fill-opacity="1" font-family="sans-serif" font-size="11px" image-rendering="optimizeQuality" stroke="black" stroke-linecap="butt" stroke-linejoin="round" stroke-opacity="1" text-rendering="geometricPrecision" transform="translate(84.2778,594.8333)"><line clip-path="url(#a54c86ca-5655-46cc-a549-1b7f158bdf05)" fill="none" x1="50" x2="50" y1="50" y2="121"/><line clip-path="url(#a54c86ca-5655-46cc-a549-1b7f158bdf05)" fill="none" x1="50" x2="179" y1="121" y2="121"/><line clip-path="url(#a54c86ca-5655-46cc-a549-1b7f158bdf05)" fill="none" x1="179" x2="167" y1="121" y2="115"/><line clip-path="url(#a54c86ca-5655-46cc-a549-1b7f158bdf05)" fill="none" x1="179" x2="167" y1="121" y2="127"/></g></g><g data="{&quot;name&quot;:&quot;confirmarCancelacion / archivarSolicitud()&quot;,&quot;modelType&quot;:&quot;Transition2&quot;}" hyper="" model-id="connector-WdMxGvmGAqDIrxLT" style="pointer-events: auto; cursor: pointer;"><g fill="black" fill-opacity="1" font-family="sans-serif" font-size="11px" image-rendering="optimizeQuality" stroke="black" stroke-linecap="butt" stroke-linejoin="round" stroke-opacity="1" text-rendering="geometricPrecision" transform="translate(231.2778,359.8333)"><line clip-path="url(#e2bf1f77-63eb-44c9-8c6e-c4e7d7af15a7)" fill="none" x1="247" x2="247" y1="50" y2="356"/><line clip-path="url(#e2bf1f77-63eb-44c9-8c6e-c4e7d7af15a7)" fill="none" x1="247" x2="50" y1="356" y2="356"/><line clip-path="url(#e2bf1f77-63eb-44c9-8c6e-c4e7d7af15a7)" fill="none" x1="50" x2="62" y1="356" y2="362"/><line clip-path="url(#e2bf1f77-63eb-44c9-8c6e-c4e7d7af15a7)" fill="none" x1="50" x2="62" y1="356" y2="350"/></g></g><g fill="black" fill-opacity="1" font-family="sans-serif" font-size="11px" image-rendering="optimizeQuality" stroke="black" stroke-opacity="1" text-rendering="geometricPrecision" transform="translate(479.2778,539.8333)"><text clip-path="url(#f56b7b44-ff04-4273-81d8-037c59c76ce1)" stroke="none" x="7" xml:space="preserve" y="14">confirmarCancelacion /</text><text clip-path="url(#f56b7b44-ff04-4273-81d8-037c59c76ce1)" stroke="none" x="19" xml:space="preserve" y="29">archivarSolicitud()</text></g><g fill="black" fill-opacity="1" font-family="sans-serif" font-size="11px" image-rendering="optimizeQuality" stroke="black" stroke-opacity="1" text-rendering="geometricPrecision" transform="translate(7.2778,659.8333)"><text clip-path="url(#447af6a1-a919-4790-9c67-3e4981f80c87)" stroke="none" x="6" xml:space="preserve" y="16">confirmarAdopcion /</text><text clip-path="url(#447af6a1-a919-4790-9c67-3e4981f80c87)" stroke="none" x="16" xml:space="preserve" y="31">cerrarSolicitud()</text></g><g fill="black" fill-opacity="1" font-family="sans-serif" font-size="11px" image-rendering="optimizeQuality" stroke="black" stroke-opacity="1" text-rendering="geometricPrecision" transform="translate(280.2778,658.8333)"><text clip-path="url(#c030fa7c-0483-4dad-b64a-68a498613e94)" stroke="none" x="18" xml:space="preserve" y="16">cerrarCaso /</text><text clip-path="url(#c030fa7c-0483-4dad-b64a-68a498613e94)" stroke="none" x="4" xml:space="preserve" y="31">archivarSolicitud()</text></g><g fill="black" fill-opacity="1" font-family="sans-serif" font-size="11px" image-rendering="optimizeQuality" stroke="black" stroke-opacity="1" text-rendering="geometricPrecision" transform="translate(42.2778,548.8333)"><text clip-path="url(#7f2eef46-0c7d-46c3-94ff-445f1db09771)" stroke="none" x="38" xml:space="preserve" y="18">aprobar</text><text clip-path="url(#7f2eef46-0c7d-46c3-94ff-445f1db09771)" stroke="none" x="7" xml:space="preserve" y="33">[cumpleRequisitos] /</text><text clip-path="url(#7f2eef46-0c7d-46c3-94ff-445f1db09771)" stroke="none" x="6" xml:space="preserve" y="48">notificarAprobacion()</text></g><g fill="black" fill-opacity="1" font-family="sans-serif" font-size="11px" image-rendering="optimizeQuality" stroke="black" stroke-opacity="1" text-rendering="geometricPrecision" transform="translate(248.2778,550.8333)"><text clip-path="url(#2b2fca1f-88f2-4afe-b56c-413b82927b78)" stroke="none" x="41" xml:space="preserve" y="16">rechazar</text><text clip-path="url(#2b2fca1f-88f2-4afe-b56c-413b82927b78)" stroke="none" x="5" xml:space="preserve" y="31">[noCumpleRequisitos] /</text><text clip-path="url(#2b2fca1f-88f2-4afe-b56c-413b82927b78)" stroke="none" x="17" xml:space="preserve" y="46">notificarRechazo()</text></g><g fill="black" fill-opacity="1" font-family="sans-serif" font-size="11px" image-rendering="optimizeQuality" stroke="black" stroke-opacity="1" text-rendering="geometricPrecision" transform="translate(336.2778,347.8333)"><text clip-path="url(#348686b4-a981-4be1-9ab2-3c442d3d21c3)" stroke="none" x="28" xml:space="preserve" y="14">cancelar /</text><text clip-path="url(#348686b4-a981-4be1-9ab2-3c442d3d21c3)" stroke="none" x="8" xml:space="preserve" y="29">actualizarEstado()</text></g><g fill="black" fill-opacity="1" font-family="sans-serif" font-size="11px" image-rendering="optimizeQuality" stroke="black" stroke-opacity="1" text-rendering="geometricPrecision" transform="translate(300.2778,145.8333)"><text clip-path="url(#4747c1c9-fa67-40d3-a1a1-b8a38ed5121e)" stroke="none" x="9" xml:space="preserve" y="12">cancelar / actualizarEstado()</text></g><g fill="black" fill-opacity="1" font-family="sans-serif" font-size="11px" image-rendering="optimizeQuality" stroke="black" stroke-opacity="1" text-rendering="geometricPrecision" transform="translate(75.2778,436.8333)"><text clip-path="url(#7e9d0256-6fa2-4018-9d3a-0092a7a35def)" stroke="none" x="6" xml:space="preserve" y="13">informacionRevisada /</text><text clip-path="url(#7e9d0256-6fa2-4018-9d3a-0092a7a35def)" stroke="none" x="16" xml:space="preserve" y="28">iniciarEvaluacion()</text></g><g fill="black" fill-opacity="1" font-family="sans-serif" font-size="11px" image-rendering="optimizeQuality" stroke="black" stroke-opacity="1" text-rendering="geometricPrecision" transform="translate(86.2778,355.8333)"><text clip-path="url(#44cde8cf-7642-4370-9b84-621f13a33dc2)" stroke="none" x="8" xml:space="preserve" y="13">identidadValidada /</text><text clip-path="url(#44cde8cf-7642-4370-9b84-621f13a33dc2)" stroke="none" x="7" xml:space="preserve" y="28">cargarInformacion()</text></g><g fill="black" fill-opacity="1" font-family="sans-serif" font-size="11px" image-rendering="optimizeQuality" stroke="black" stroke-opacity="1" text-rendering="geometricPrecision" transform="translate(15.2778,201.8333)"><text clip-path="url(#7158e539-4a8b-420d-a666-e8b656af1e76)" stroke="none" x="9" xml:space="preserve" y="12">iniciarRevision / cargarSolicitud()</text></g><g fill="black" fill-opacity="1" font-family="sans-serif" font-size="11px" image-rendering="optimizeQuality" stroke="black" stroke-opacity="1" text-rendering="geometricPrecision" transform="translate(2.2778,112.8333)"><text clip-path="url(#8cdec62e-f39e-4d28-8745-2928b9273416)" stroke="none" x="5" xml:space="preserve" y="15">enviarSolicitud / notificarPropietario()</text></g><g fill="black" fill-opacity="1" font-family="sans-serif" font-size="11px" image-rendering="optimizeQuality" stroke="black" stroke-opacity="1" text-rendering="geometricPrecision" transform="translate(91.2778,23.8333)"><text clip-path="url(#f85c541d-67c8-4b7a-a2de-e511585c0080)" stroke="none" x="13" xml:space="preserve" y="15">crearSolicitud /</text><text clip-path="url(#f85c541d-67c8-4b7a-a2de-e511585c0080)" stroke="none" x="4" xml:space="preserve" y="30">registrarSolicitud()</text></g><g fill="rgb(120,120,120)" fill-opacity="1" font-size="10px" image-rendering="optimizeQuality" stroke="rgb(120,120,120)" stroke-opacity="1" text-rendering="geometricPrecision"></g></g></svg>