<?xml version="1.0" encoding="UTF-8"?><svg xmlns="http://www.w3.org/2000/svg" xmlns:xlink="http://www.w3.org/1999/xlink" color-interpolation="auto" color-rendering="auto" fill="rgb(0,0,0)" fill-opacity="0" font-family="'Dialog'" font-size="12px" font-style="normal" font-weight="normal" height="659" image-rendering="auto" shape-rendering="auto" stroke="rgb(0,0,0)" stroke-dasharray="none" stroke-dashoffset="0" stroke-linecap="square" stroke-linejoin="miter" stroke-miterlimit="10" stroke-opacity="0" stroke-width="1" text-rendering="auto" viewbox="0 0 919 659" width="919"><!--Generated by the Batik Graphics2D SVG Generator--><defs id="genericDefs"/><g><defs id="defs1"><clipPath clipPathUnits="userSpaceOnUse" id="2bdd63ce-fa9c-4ffb-88c9-03fdee08be20"><path d="M-7 -7 L71 -7 L71 664 L-7 664 L-7 -7 Z"/></clipPath><clipPath clipPathUnits="userSpaceOnUse" id="5cad1e10-4af0-4c4f-9cf5-80341a5e11ad"><path d="M-7 -7 L71 -7 L71 664 L-7 664 L-7 -7 Z"/></clipPath><clipPath clipPathUnits="userSpaceOnUse" id="8b475601-35d0-499d-bdb5-b21883970d56"><path d="M-7 -7 L151 -7 L151 664 L-7 664 L-7 -7 Z"/></clipPath><clipPath clipPathUnits="userSpaceOnUse" id="0ab716e7-eb18-45e3-9b54-304236ff4397"><path d="M-7 -7 L151 -7 L151 664 L-7 664 L-7 -7 Z"/></clipPath><clipPath clipPathUnits="userSpaceOnUse" id="670c3636-4a61-4080-b56a-e5843f695f2a"><path d="M-7 -7 L131 -7 L131 664 L-7 664 L-7 -7 Z"/></clipPath><clipPath clipPathUnits="userSpaceOnUse" id="fcc458cb-0f46-4e16-98c2-fd3eca682c9c"><path d="M-7 -7 L131 -7 L131 664 L-7 664 L-7 -7 Z"/></clipPath><clipPath clipPathUnits="userSpaceOnUse" id="e27ef837-0583-4f1e-ac37-404d55ed240b"><path d="M-7 -7 L129 -7 L129 664 L-7 664 L-7 -7 Z"/></clipPath><clipPath clipPathUnits="userSpaceOnUse" id="e08e25f6-b7aa-47ab-a8b4-cfd8033da623"><path d="M-7 -7 L129 -7 L129 664 L-7 664 L-7 -7 Z"/></clipPath><clipPath clipPathUnits="userSpaceOnUse" id="e8609e66-c329-44c7-9ac4-a24064ce73e1"><path d="M-7 -7 L19 -7 L19 72 L-7 72 L-7 -7 Z"/></clipPath><clipPath clipPathUnits="userSpaceOnUse" id="2cf7ad51-6867-4700-b513-1b8587c0015c"><path d="M-7 -7 L19 -7 L19 72 L-7 72 L-7 -7 Z"/></clipPath><clipPath clipPathUnits="userSpaceOnUse" id="2f7d0941-3cd9-412c-893d-fca5f3a0f1f5"><path d="M-7 -7 L19 -7 L19 171 L-7 171 L-7 -7 Z"/></clipPath><clipPath clipPathUnits="userSpaceOnUse" id="9f18ea8d-61cf-426e-8cde-4d2253db257d"><path d="M-7 -7 L19 -7 L19 171 L-7 171 L-7 -7 Z"/></clipPath><clipPath clipPathUnits="userSpaceOnUse" id="4e585a95-9217-4771-aaac-80ea7a993de5"><path d="M-7 -7 L19 -7 L19 59 L-7 59 L-7 -7 Z"/></clipPath><clipPath clipPathUnits="userSpaceOnUse" id="97ee2ddb-bf20-4736-a66a-23f1111db223"><path d="M-7 -7 L19 -7 L19 59 L-7 59 L-7 -7 Z"/></clipPath><clipPath clipPathUnits="userSpaceOnUse" id="96107c45-15f8-445a-a877-2ec2fb8b51a7"><path d="M-7 -7 L19 -7 L19 209 L-7 209 L-7 -7 Z"/></clipPath><clipPath clipPathUnits="userSpaceOnUse" id="16dc4e26-ed97-4089-9501-912a106c032d"><path d="M-7 -7 L19 -7 L19 209 L-7 209 L-7 -7 Z"/></clipPath><clipPath clipPathUnits="userSpaceOnUse" id="e17c30e5-aba8-43ae-9d21-ceaa5c9b41f0"><path d="M-7 -7 L19 -7 L19 26 L-7 26 L-7 -7 Z"/></clipPath><clipPath clipPathUnits="userSpaceOnUse" id="5b0149d0-e8fe-4d6c-835f-68f455fe756e"><path d="M-7 -7 L19 -7 L19 26 L-7 26 L-7 -7 Z"/></clipPath><clipPath clipPathUnits="userSpaceOnUse" id="68885bb2-26b5-449a-8141-6cf998fa56f1"><path d="M-7 -7 L19 -7 L19 55 L-7 55 L-7 -7 Z"/></clipPath><clipPath clipPathUnits="userSpaceOnUse" id="464ec3ac-2e16-45da-aca0-905b818e6fdf"><path d="M-7 -7 L19 -7 L19 55 L-7 55 L-7 -7 Z"/></clipPath><clipPath clipPathUnits="userSpaceOnUse" id="b6185371-7c3b-4179-95af-9a42986fd8b6"><path d="M-7 -7 L19 -7 L19 47 L-7 47 L-7 -7 Z"/></clipPath><clipPath clipPathUnits="userSpaceOnUse" id="963e1b4e-f5de-430b-8cd8-c52b5f8e0875"><path d="M-7 -7 L19 -7 L19 47 L-7 47 L-7 -7 Z"/></clipPath><clipPath clipPathUnits="userSpaceOnUse" id="a89ea849-62d7-4ec0-8a7e-faed7935c5b6"><path d="M-7 -7 L306 -7 L306 82 L-7 82 L-7 -7 Z"/></clipPath><clipPath clipPathUnits="userSpaceOnUse" id="c1f4e4e3-7a07-4c64-ad27-e34b9f9037e0"><path d="M207 24 L207 38 L38 38 L38 24 ZM-7 -7 L-7 82 L306 82 L306 -7 Z"/></clipPath><clipPath clipPathUnits="userSpaceOnUse" id="aa6b3e78-924c-4ecc-816a-f8e45349e859"><path d="M-7 -7 L306 -7 L306 82 L-7 82 L-7 -7 Z"/></clipPath><clipPath clipPathUnits="userSpaceOnUse" id="1fca2938-9baa-4340-beec-52e79edf9246"><path d="M0 0 L0 18 L34 18 L34 0 Z"/></clipPath><clipPath clipPathUnits="userSpaceOnUse" id="d26f4dfb-5099-4306-a9ad-1502bc0ed8c5"><path d="M-7 -7 L306 -7 L306 64 L-7 64 L-7 -7 Z"/></clipPath><clipPath clipPathUnits="userSpaceOnUse" id="f8166c61-443e-486d-a67e-de313725f3f1"><path d="M-7 -7 L306 -7 L306 64 L-7 64 L-7 -7 Z"/></clipPath><clipPath clipPathUnits="userSpaceOnUse" id="c24efd9a-17a0-4fd6-948f-77b752ea60d4"><path d="M0 0 L0 15 L190 15 L190 0 Z"/></clipPath><clipPath clipPathUnits="userSpaceOnUse" id="4d5aeeee-c77a-4e18-9413-7a5d640a0a48"><path d="M0 0 L0 4 L295 4 L295 0 Z"/></clipPath><clipPath clipPathUnits="userSpaceOnUse" id="a33bf5f3-5b6e-4718-a4ef-21865ca6ce93"><path d="M-7 -7 L888 -7 L888 309 L-7 309 L-7 -7 Z"/></clipPath><clipPath clipPathUnits="userSpaceOnUse" id="822846db-59e2-4e76-991e-7618741968b2"><path d="M263 24 L263 38 L40 38 L40 24 ZM173 162 L173 176 L39 176 L39 162 ZM-7 -7 L-7 309 L888 309 L888 -7 Z"/></clipPath><clipPath clipPathUnits="userSpaceOnUse" id="1ee98a23-aa5d-412c-915e-bf425049386b"><path d="M-7 -7 L888 -7 L888 309 L-7 309 L-7 -7 Z"/></clipPath><clipPath clipPathUnits="userSpaceOnUse" id="ccea7008-641a-4a4e-a075-625d0ac0a3df"><path d="M0 0 L0 18 L23 18 L23 0 Z"/></clipPath><clipPath clipPathUnits="userSpaceOnUse" id="321a33d2-bde8-48e1-b5a8-db04b7568f6f"><path d="M-7 -7 L888 -7 L888 149 L-7 149 L-7 -7 Z"/></clipPath><clipPath clipPathUnits="userSpaceOnUse" id="6b923fb5-656a-4a34-8166-0bed9c1d3795"><path d="M-7 -7 L888 -7 L888 149 L-7 149 L-7 -7 Z"/></clipPath><clipPath clipPathUnits="userSpaceOnUse" id="cf27b3c4-593d-496f-80de-09723d47c975"><path d="M-7 -7 L888 -7 L888 149 L-7 149 L-7 -7 Z"/></clipPath><clipPath clipPathUnits="userSpaceOnUse" id="39ad88ec-ab09-422e-994d-349ef45561ac"><path d="M0 0 L0 15 L244 15 L244 0 Z"/></clipPath><clipPath clipPathUnits="userSpaceOnUse" id="e4b54d7e-8997-4e33-9854-6723bb42477d"><path d="M0 0 L0 4 L877 4 L877 0 Z"/></clipPath><clipPath clipPathUnits="userSpaceOnUse" id="5e431103-8698-4979-a47d-db215e15c7a2"><path d="M-7 -7 L888 -7 L888 153 L-7 153 L-7 -7 Z"/></clipPath><clipPath clipPathUnits="userSpaceOnUse" id="21c7b36f-a539-425c-a4f0-7a5d313151ef"><path d="M-7 -7 L888 -7 L888 153 L-7 153 L-7 -7 Z"/></clipPath><clipPath clipPathUnits="userSpaceOnUse" id="348109d2-35ec-4799-9b1b-fc0d280153ff"><path d="M0 0 L0 15 L154 15 L154 0 Z"/></clipPath><clipPath clipPathUnits="userSpaceOnUse" id="006fece7-0d52-43d6-812c-a8a8f2cf4e16"><path d="M0 0 L0 4 L877 4 L877 0 Z"/></clipPath><clipPath clipPathUnits="userSpaceOnUse" id="02fc5c94-bd66-42bd-bf0f-f411de8424be"><path d="M-134 -15 L268 -15 L268 30 L-134 30 L-134 -15 Z"/></clipPath><clipPath clipPathUnits="userSpaceOnUse" id="702e0936-fb3a-44b7-a343-dfc7598483a5"><path d="M-129 -15 L258 -15 L258 30 L-129 30 L-129 -15 Z"/></clipPath><clipPath clipPathUnits="userSpaceOnUse" id="c8f5e4b6-6e87-425b-ae7f-baf4b28c14a2"><path d="M-109 -15 L218 -15 L218 30 L-109 30 L-109 -15 Z"/></clipPath><clipPath clipPathUnits="userSpaceOnUse" id="ea0efefe-41da-42b5-aeb3-06783adcc7c2"><path d="M-107 -15 L214 -15 L214 30 L-107 30 L-107 -15 Z"/></clipPath><clipPath clipPathUnits="userSpaceOnUse" id="d88fd7a9-89c0-41b5-86ce-22da3555dfd0"><path d="M0 0 L337 0 L337 104 L0 104 L0 0 Z"/></clipPath><clipPath clipPathUnits="userSpaceOnUse" id="0670114b-9c14-4392-ad17-63a5f75705e3"><path d="M256 30 L256 45 L74 45 L74 30 ZM235 67 L235 82 L96 82 L96 67 ZM0 0 L0 8 L113 8 L113 23 L0 23 L0 104 L337 104 L337 23 L223 23 L223 8 L337 8 L337 0 Z"/></clipPath><clipPath clipPathUnits="userSpaceOnUse" id="56544717-d8f7-402f-afc5-20434b8e1c06"><path d="M0 0 L337 0 L337 104 L0 104 L0 0 Z"/></clipPath><clipPath clipPathUnits="userSpaceOnUse" id="b146951e-ac1b-41e1-a5a9-80b7438aa552"><path d="M260 30 L260 45 L69 45 L69 30 ZM0 0 L0 104 L337 104 L337 75 L321 75 L321 60 L337 60 L337 0 Z"/></clipPath><clipPath clipPathUnits="userSpaceOnUse" id="16ec5059-da89-49cc-9c2a-134724448849"><path d="M0 0 L367 0 L367 104 L0 104 L0 0 Z"/></clipPath><clipPath clipPathUnits="userSpaceOnUse" id="ab67b49f-631c-4a32-932e-5f580c45f55f"><path d="M280 30 L280 45 L80 45 L80 30 ZM19 0 L19 15 L0 15 L0 104 L351 104 L351 94 L367 94 L367 0 Z"/></clipPath><clipPath clipPathUnits="userSpaceOnUse" id="c3c21d10-0956-49e8-8c45-fa9933df2a3f"><path d="M0 0 L371 0 L371 104 L0 104 L0 0 Z"/></clipPath><clipPath clipPathUnits="userSpaceOnUse" id="b5a1061f-be06-4b4b-a993-5d80b43c3442"><path d="M286 30 L286 45 L80 45 L80 30 ZM263 66 L263 81 L102 81 L102 66 ZM0 0 L0 104 L371 104 L371 0 Z"/></clipPath><clipPath clipPathUnits="userSpaceOnUse" id="a0552fc5-b9bc-45ad-8353-e56bd8e2e982"><path d="M0 0 L337 0 L337 104 L0 104 L0 0 Z"/></clipPath><clipPath clipPathUnits="userSpaceOnUse" id="1ef830e8-fa2d-4223-b201-bbfe771f1e6e"><path d="M235 30 L235 45 L96 45 L96 30 ZM234 88 L234 103 L86 103 L86 88 ZM0 0 L0 104 L337 104 L337 0 L256 0 L256 8 L74 8 L74 0 Z"/></clipPath><clipPath clipPathUnits="userSpaceOnUse" id="9619bc26-6189-4ab8-9874-5d802688f836"><path d="M0 0 L337 0 L337 104 L0 104 L0 0 Z"/></clipPath><clipPath clipPathUnits="userSpaceOnUse" id="083decb8-f26c-4116-b92c-2586d332d920"><path d="M234 15 L234 30 L86 30 L86 15 ZM0 0 L0 104 L337 104 L337 0 Z"/></clipPath><clipPath clipPathUnits="userSpaceOnUse" id="8e1c4d36-ffe1-4c57-b173-8e249b641d74"><path d="M0 0 L371 0 L371 104 L0 104 L0 0 Z"/></clipPath><clipPath clipPathUnits="userSpaceOnUse" id="3771347c-cd2d-4efa-aeb4-ee2bd49a187b"><path d="M263 30 L263 45 L102 45 L102 30 ZM0 0 L0 104 L371 104 L371 0 L286 0 L286 9 L80 9 L80 0 Z"/></clipPath><clipPath clipPathUnits="userSpaceOnUse" id="5d000dc2-b57b-4c44-b8e7-fce0d1645e5a"><path d="M0 0 L367 0 L367 104 L0 104 L0 0 Z"/></clipPath><clipPath clipPathUnits="userSpaceOnUse" id="0784e5a8-b507-424c-ac68-00a7cd25881d"><path d="M242 30 L242 45 L120 45 L120 30 ZM0 0 L0 104 L367 104 L367 0 Z"/></clipPath><clipPath clipPathUnits="userSpaceOnUse" id="8d688fcf-d437-4117-ad48-81fc705b49be"><path d="M0 0 L337 0 L337 104 L0 104 L0 0 Z"/></clipPath><clipPath clipPathUnits="userSpaceOnUse" id="ddebbb7d-f694-4c23-be7a-ed876642d9a2"><path d="M233 30 L233 45 L97 45 L97 30 ZM0 0 L0 104 L337 104 L337 0 Z"/></clipPath><clipPath clipPathUnits="userSpaceOnUse" id="03b1863e-68ce-4859-bd98-4de2ce8623d0"><path d="M0 0 L367 0 L367 104 L0 104 L0 0 Z"/></clipPath><clipPath clipPathUnits="userSpaceOnUse" id="85769051-891c-42d9-ba87-49d64dcd29ab"><path d="M255 30 L255 45 L108 45 L108 30 ZM0 0 L0 45 L1 45 L1 60 L0 60 L0 104 L367 104 L367 0 Z"/></clipPath><clipPath clipPathUnits="userSpaceOnUse" id="13d7f09b-9f13-4643-9f33-931ed2f57c3b"><path d="M0 0 L337 0 L337 104 L0 104 L0 0 Z"/></clipPath><clipPath clipPathUnits="userSpaceOnUse" id="43b8d145-dfbb-4e44-980b-152cb5717763"><path d="M242 30 L242 45 L89 45 L89 30 ZM0 0 L0 104 L337 104 L337 0 Z"/></clipPath><clipPath clipPathUnits="userSpaceOnUse" id="f7b0ba0b-0a10-4c36-870a-786bfa6ac54b"><path d="M-153 -15 L306 -15 L306 30 L-153 30 L-153 -15 Z"/></clipPath><clipPath clipPathUnits="userSpaceOnUse" id="09a5d65f-0139-426d-ab1f-6c9efb817c64"><path d="M-147 -15 L294 -15 L294 30 L-147 30 L-147 -15 Z"/></clipPath><clipPath clipPathUnits="userSpaceOnUse" id="0910fa43-3d06-4332-ba58-2d847aa0d9b5"><path d="M-136 -15 L272 -15 L272 30 L-136 30 L-136 -15 Z"/></clipPath><clipPath clipPathUnits="userSpaceOnUse" id="422af104-670f-4a8b-91cd-3c5b56f5947d"><path d="M-122 -15 L244 -15 L244 30 L-122 30 L-122 -15 Z"/></clipPath><clipPath clipPathUnits="userSpaceOnUse" id="4121d393-9e8a-4499-986b-dc981fe5be0b"><path d="M-161 -15 L322 -15 L322 30 L-161 30 L-161 -15 Z"/></clipPath><clipPath clipPathUnits="userSpaceOnUse" id="12d96174-be70-45fc-88d6-d7ea92b7d594"><path d="M-148 -15 L296 -15 L296 30 L-148 30 L-148 -15 Z"/></clipPath><clipPath clipPathUnits="userSpaceOnUse" id="1071f50c-a7ea-4dd6-8caa-4e37ec5ee0a0"><path d="M-139 -15 L278 -15 L278 30 L-139 30 L-139 -15 Z"/></clipPath><clipPath clipPathUnits="userSpaceOnUse" id="537b7698-e4e5-4840-8a43-9fa8904356dc"><path d="M-206 -15 L412 -15 L412 30 L-206 30 L-206 -15 Z"/></clipPath><clipPath clipPathUnits="userSpaceOnUse" id="540a1b6b-d2eb-4c1d-a1e8-768a68234bf0"><path d="M-200 -15 L400 -15 L400 30 L-200 30 L-200 -15 Z"/></clipPath><clipPath clipPathUnits="userSpaceOnUse" id="fa32f233-496a-498a-a65a-5c6c4607795d"><path d="M-191 -15 L382 -15 L382 30 L-191 30 L-191 -15 Z"/></clipPath><clipPath clipPathUnits="userSpaceOnUse" id="ceca2123-31ab-444b-bbfa-b190b0cc6a86"><path d="M-182 -15 L364 -15 L364 30 L-182 30 L-182 -15 Z"/></clipPath></defs><g fill="white" fill-opacity="1" stroke="white" stroke-opacity="1" text-rendering="geometricPrecision"><rect height="659" stroke="none" width="919" x="0" y="0"/></g><g data="{&quot;name&quot;:&quot;Propietario de mascota&quot;,&quot;modelType&quot;:&quot;InteractionActor&quot;}" hyper="" model-id="shape-5d9m0vmGAqDIrxJk" style="pointer-events: auto; cursor: pointer;"><g fill="black" fill-opacity="1" font-family="sans-serif" font-size="11px" image-rendering="optimizeQuality" stroke="black" stroke-linecap="butt" stroke-linejoin="round" stroke-miterlimit="0" stroke-opacity="1" text-rendering="geometricPrecision" transform="translate(39,2)"><circle clip-path="url(#5cad1e10-4af0-4c4f-9cf5-80341a5e11ad)" cx="30" cy="5" fill="none" r="5"/><rect clip-path="url(#5cad1e10-4af0-4c4f-9cf5-80341a5e11ad)" fill="none" height="602" width="8" x="26" y="50"/><line clip-path="url(#5cad1e10-4af0-4c4f-9cf5-80341a5e11ad)" fill="none" x1="30" x2="30" y1="10" y2="25"/><line clip-path="url(#5cad1e10-4af0-4c4f-9cf5-80341a5e11ad)" fill="none" x1="30" x2="21" y1="25" y2="36"/><line clip-path="url(#5cad1e10-4af0-4c4f-9cf5-80341a5e11ad)" fill="none" x1="30" x2="39" y1="25" y2="36"/><line clip-path="url(#5cad1e10-4af0-4c4f-9cf5-80341a5e11ad)" fill="none" x1="21" x2="39" y1="16" y2="16"/></g></g><g data="{&quot;name&quot;:&quot;InterfazRegistroMascota&quot;,&quot;modelType&quot;:&quot;InteractionLifeLine&quot;}" hyper="" model-id="shape-OhOW0vmGAqDIrxKU" style="pointer-events: auto; cursor: pointer;"><g fill="rgb(122,207,245)" font-family="sans-serif" font-size="11px" image-rendering="optimizeQuality" stroke="rgb(122,207,245)" text-rendering="geometricPrecision" transform="translate(240,2)"><circle clip-path="url(#0ab716e7-eb18-45e3-9b54-304236ff4397)" cx="92.5" cy="16.5" r="16.5" stroke="none"/></g><g fill="black" fill-opacity="1" font-family="sans-serif" font-size="11px" image-rendering="optimizeQuality" stroke="black" stroke-opacity="1" text-rendering="geometricPrecision" transform="translate(240,2)"><line clip-path="url(#0ab716e7-eb18-45e3-9b54-304236ff4397)" fill="none" x1="30" x2="30" y1="0" y2="33"/><line clip-path="url(#0ab716e7-eb18-45e3-9b54-304236ff4397)" fill="none" x1="30" x2="76" y1="16" y2="16"/><circle clip-path="url(#0ab716e7-eb18-45e3-9b54-304236ff4397)" cx="92.5" cy="16.5" fill="none" r="16.5"/></g><g fill="black" fill-opacity="1" font-family="sans-serif" font-size="11px" image-rendering="optimizeQuality" stroke="black" stroke-dasharray="8,3" stroke-linecap="butt" stroke-linejoin="bevel" stroke-miterlimit="0" stroke-opacity="1" text-rendering="geometricPrecision" transform="translate(240,2)"><line clip-path="url(#0ab716e7-eb18-45e3-9b54-304236ff4397)" fill="none" x1="69" x2="69" y1="50" y2="653"/></g></g><g data="{&quot;name&quot;:&quot;ControladorMascota&quot;,&quot;modelType&quot;:&quot;InteractionLifeLine&quot;}" hyper="" model-id="shape-u3eW0vmGAqDIrxKk" style="pointer-events: auto; cursor: pointer;"><g fill="rgb(122,207,245)" font-family="sans-serif" font-size="11px" image-rendering="optimizeQuality" stroke="rgb(122,207,245)" text-rendering="geometricPrecision" transform="translate(521,2)"><circle clip-path="url(#fcc458cb-0f46-4e16-98c2-fd3eca682c9c)" cx="59.5" cy="19.5" r="15.5" stroke="none"/></g><g fill="black" fill-opacity="1" font-family="sans-serif" font-size="11px" image-rendering="optimizeQuality" stroke="black" stroke-opacity="1" text-rendering="geometricPrecision" transform="translate(521,2)"><circle clip-path="url(#fcc458cb-0f46-4e16-98c2-fd3eca682c9c)" cx="59.5" cy="19.5" fill="none" r="15.5"/><line clip-path="url(#fcc458cb-0f46-4e16-98c2-fd3eca682c9c)" fill="none" x1="56" x2="64" y1="4" y2="0"/><line clip-path="url(#fcc458cb-0f46-4e16-98c2-fd3eca682c9c)" fill="none" x1="56" x2="64" y1="4" y2="8"/></g><g fill="black" fill-opacity="1" font-family="sans-serif" font-size="11px" image-rendering="optimizeQuality" stroke="black" stroke-dasharray="8,3" stroke-linecap="butt" stroke-linejoin="bevel" stroke-miterlimit="0" stroke-opacity="1" text-rendering="geometricPrecision" transform="translate(521,2)"><line clip-path="url(#fcc458cb-0f46-4e16-98c2-fd3eca682c9c)" fill="none" x1="59" x2="59" y1="50" y2="653"/></g></g><g data="{&quot;name&quot;:&quot;RepositorioMascota&quot;,&quot;modelType&quot;:&quot;InteractionLifeLine&quot;}" hyper="" model-id="shape-JnBW0vmGAqDIrxKw" style="pointer-events: auto; cursor: pointer;"><g fill="rgb(122,207,245)" font-family="sans-serif" font-size="11px" image-rendering="optimizeQuality" stroke="rgb(122,207,245)" text-rendering="geometricPrecision" transform="translate(797,2)"><circle clip-path="url(#e08e25f6-b7aa-47ab-a8b4-cfd8033da623)" cx="58.5" cy="16.5" r="16.5" stroke="none"/></g><g fill="black" fill-opacity="1" font-family="sans-serif" font-size="11px" image-rendering="optimizeQuality" stroke="black" stroke-opacity="1" text-rendering="geometricPrecision" transform="translate(797,2)"><circle clip-path="url(#e08e25f6-b7aa-47ab-a8b4-cfd8033da623)" cx="58.5" cy="16.5" fill="none" r="16.5"/><line clip-path="url(#e08e25f6-b7aa-47ab-a8b4-cfd8033da623)" fill="none" x1="19" x2="98" y1="33" y2="33"/></g><g fill="black" fill-opacity="1" font-family="sans-serif" font-size="11px" image-rendering="optimizeQuality" stroke="black" stroke-dasharray="8,3" stroke-linecap="butt" stroke-linejoin="bevel" stroke-miterlimit="0" stroke-opacity="1" text-rendering="geometricPrecision" transform="translate(797,2)"><line clip-path="url(#e08e25f6-b7aa-47ab-a8b4-cfd8033da623)" fill="none" x1="58" x2="58" y1="50" y2="653"/></g></g><g data="{&quot;name&quot;:&quot;Activation&quot;,&quot;modelType&quot;:&quot;Activation&quot;}" hyper="" model-id="shape-v9nO0vmGAqDIrxLM" style="pointer-events: auto; cursor: pointer;"><g fill="black" fill-opacity="1" font-family="sans-serif" font-size="11px" image-rendering="optimizeQuality" stroke="black" stroke-linecap="butt" stroke-linejoin="round" stroke-miterlimit="0" stroke-opacity="1" text-rendering="geometricPrecision" transform="translate(306,73)"><rect clip-path="url(#2cf7ad51-6867-4700-b513-1b8587c0015c)" fill="none" height="61" width="8" x="0" y="0"/></g></g><g data="{&quot;name&quot;:&quot;Activation&quot;,&quot;modelType&quot;:&quot;Activation&quot;}" hyper="" model-id="shape-kSxe0vmGAqDIrxPG" style="pointer-events: auto; cursor: pointer;"><g fill="black" fill-opacity="1" font-family="sans-serif" font-size="11px" image-rendering="optimizeQuality" stroke="black" stroke-linecap="butt" stroke-linejoin="round" stroke-miterlimit="0" stroke-opacity="1" text-rendering="geometricPrecision" transform="translate(577,300)"><rect clip-path="url(#9f18ea8d-61cf-426e-8cde-4d2253db257d)" fill="none" height="160" width="8" x="0" y="0"/></g></g><g data="{&quot;name&quot;:&quot;Activation&quot;,&quot;modelType&quot;:&quot;Activation&quot;}" hyper="" model-id="shape-i7Ze0vmGAqDIrxPS" style="pointer-events: auto; cursor: pointer;"><g fill="black" fill-opacity="1" font-family="sans-serif" font-size="11px" image-rendering="optimizeQuality" stroke="black" stroke-linecap="butt" stroke-linejoin="round" stroke-miterlimit="0" stroke-opacity="1" text-rendering="geometricPrecision" transform="translate(852,372)"><rect clip-path="url(#97ee2ddb-bf20-4736-a66a-23f1111db223)" fill="none" height="48" width="8" x="0" y="0"/></g></g><g data="{&quot;name&quot;:&quot;Activation&quot;,&quot;modelType&quot;:&quot;Activation&quot;}" hyper="" model-id="shape-B5Ne0vmGAqDIrxP0" style="pointer-events: auto; cursor: pointer;"><g fill="black" fill-opacity="1" font-family="sans-serif" font-size="11px" image-rendering="optimizeQuality" stroke="black" stroke-linecap="butt" stroke-linejoin="round" stroke-miterlimit="0" stroke-opacity="1" text-rendering="geometricPrecision" transform="translate(306,266)"><rect clip-path="url(#16dc4e26-ed97-4089-9501-912a106c032d)" fill="none" height="198" width="8" x="0" y="0"/></g></g><g data="{&quot;name&quot;:&quot;Activation&quot;,&quot;modelType&quot;:&quot;Activation&quot;}" hyper="" model-id="shape-Rlk.0vmGAqDIrxRB" style="pointer-events: auto; cursor: pointer;"><g fill="black" fill-opacity="1" font-family="sans-serif" font-size="11px" image-rendering="optimizeQuality" stroke="black" stroke-linecap="butt" stroke-linejoin="round" stroke-miterlimit="0" stroke-opacity="1" text-rendering="geometricPrecision" transform="translate(306,186)"><rect clip-path="url(#5b0149d0-e8fe-4d6c-835f-68f455fe756e)" fill="none" height="15" width="8" x="0" y="0"/></g></g><g data="{&quot;name&quot;:&quot;Activation&quot;,&quot;modelType&quot;:&quot;Activation&quot;}" hyper="" model-id="shape-KhuB0vmGAqDIrxVP" style="pointer-events: auto; cursor: pointer;"><g fill="black" fill-opacity="1" font-family="sans-serif" font-size="11px" image-rendering="optimizeQuality" stroke="black" stroke-linecap="butt" stroke-linejoin="round" stroke-miterlimit="0" stroke-opacity="1" text-rendering="geometricPrecision" transform="translate(306,526)"><rect clip-path="url(#464ec3ac-2e16-45da-aca0-905b818e6fdf)" fill="none" height="44" width="8" x="0" y="0"/></g></g><g data="{&quot;name&quot;:&quot;Activation&quot;,&quot;modelType&quot;:&quot;Activation&quot;}" hyper="" model-id="shape-puFB0vmGAqDIrxV6" style="pointer-events: auto; cursor: pointer;"><g fill="black" fill-opacity="1" font-family="sans-serif" font-size="11px" image-rendering="optimizeQuality" stroke="black" stroke-linecap="butt" stroke-linejoin="round" stroke-miterlimit="0" stroke-opacity="1" text-rendering="geometricPrecision" transform="translate(577,529)"><rect clip-path="url(#963e1b4e-f5de-430b-8cd8-c52b5f8e0875)" fill="none" height="36" width="8" x="0" y="0"/></g></g><g data="{&quot;name&quot;:&quot;loop [para cada fotografía (1 a 5)]&quot;,&quot;modelType&quot;:&quot;CombinedFragment&quot;}" hyper="" model-id="shape-gcGh0vmGAqDIrxXh" style="pointer-events: auto; cursor: pointer;"><g fill="black" fill-opacity="1" font-family="sans-serif" font-size="11px" font-weight="bold" image-rendering="optimizeQuality" stroke="black" stroke-linecap="butt" stroke-linejoin="round" stroke-miterlimit="0" stroke-opacity="1" text-rendering="geometricPrecision" transform="translate(39,150)"><rect clip-path="url(#c1f4e4e3-7a07-4c64-ad27-e34b9f9037e0)" fill="none" height="71" width="295" x="0" y="0"/></g><g fill="white" fill-opacity="1" font-family="sans-serif" font-size="11px" font-weight="bold" image-rendering="optimizeQuality" stroke="white" stroke-opacity="1" text-rendering="geometricPrecision" transform="translate(39,150)"><path clip-path="url(#c1f4e4e3-7a07-4c64-ad27-e34b9f9037e0)" d="M33 0 L33 9 L27 17 L0 17 L0 0 Z" stroke="none"/></g><g fill="black" fill-opacity="1" font-family="sans-serif" font-size="11px" font-weight="bold" image-rendering="optimizeQuality" stroke="black" stroke-linecap="butt" stroke-linejoin="round" stroke-miterlimit="0" stroke-opacity="1" text-rendering="geometricPrecision" transform="translate(39,150)"><path clip-path="url(#c1f4e4e3-7a07-4c64-ad27-e34b9f9037e0)" d="M33 0 L33 9 L27 17 L0 17 L0 0 Z" fill="none"/></g></g><g fill="black" fill-opacity="1" font-family="sans-serif" font-size="11px" font-weight="bold" image-rendering="optimizeQuality" stroke="black" stroke-opacity="1" text-rendering="geometricPrecision" transform="translate(39,150)"><text clip-path="url(#1fca2938-9baa-4340-beec-52e79edf9246)" stroke="none" x="5" xml:space="preserve" y="12">loop</text></g><g fill="white" fill-opacity="1" font-family="sans-serif" font-size="11px" image-rendering="optimizeQuality" stroke="white" stroke-opacity="1" text-rendering="geometricPrecision" transform="translate(67,173)"><rect clip-path="url(#c24efd9a-17a0-4fd6-948f-77b752ea60d4)" height="17" stroke="none" width="171" x="9" y="-1"/><text clip-path="url(#c24efd9a-17a0-4fd6-948f-77b752ea60d4)" fill="black" stroke="none" x="10" xml:space="preserve" y="12">[loop [para cada fotografía (1 a 5)]]</text></g><g data="{&quot;name&quot;:&quot;alt [campos obligatorios completos y válidos]&quot;,&quot;modelType&quot;:&quot;CombinedFragment&quot;}" hyper="" model-id="shape-7ijh0vmGAqDIrxZO" style="pointer-events: auto; cursor: pointer;"><g fill="black" fill-opacity="1" font-family="sans-serif" font-size="11px" font-weight="bold" image-rendering="optimizeQuality" stroke="black" stroke-linecap="butt" stroke-linejoin="round" stroke-miterlimit="0" stroke-opacity="1" text-rendering="geometricPrecision" transform="translate(29,336)"><rect clip-path="url(#822846db-59e2-4e76-991e-7618741968b2)" fill="none" height="298" width="877" x="0" y="0"/></g><g fill="white" fill-opacity="1" font-family="sans-serif" font-size="11px" font-weight="bold" image-rendering="optimizeQuality" stroke="white" stroke-opacity="1" text-rendering="geometricPrecision" transform="translate(29,336)"><path clip-path="url(#822846db-59e2-4e76-991e-7618741968b2)" d="M22 0 L22 9 L16 17 L0 17 L0 0 Z" stroke="none"/></g><g fill="black" fill-opacity="1" font-family="sans-serif" font-size="11px" font-weight="bold" image-rendering="optimizeQuality" stroke="black" stroke-linecap="butt" stroke-linejoin="round" stroke-miterlimit="0" stroke-opacity="1" text-rendering="geometricPrecision" transform="translate(29,336)"><path clip-path="url(#822846db-59e2-4e76-991e-7618741968b2)" d="M22 0 L22 9 L16 17 L0 17 L0 0 Z" fill="none"/></g></g><g fill="black" fill-opacity="1" font-family="sans-serif" font-size="11px" font-weight="bold" image-rendering="optimizeQuality" stroke="black" stroke-opacity="1" text-rendering="geometricPrecision" transform="translate(29,336)"><text clip-path="url(#ccea7008-641a-4a4e-a075-625d0ac0a3df)" stroke="none" x="5" xml:space="preserve" y="12">alt</text></g><g data="{&quot;name&quot;:&quot;Operand2&quot;,&quot;modelType&quot;:&quot;InteractionOperand&quot;}" hyper="" model-id="shape-QSjh0vmGAqDIrxZS" style="pointer-events: auto; cursor: pointer;"><g fill="black" fill-opacity="1" font-family="sans-serif" font-size="11px" image-rendering="optimizeQuality" stroke="black" stroke-dasharray="5,2" stroke-linecap="butt" stroke-linejoin="bevel" stroke-miterlimit="0" stroke-opacity="1" text-rendering="geometricPrecision" transform="translate(29,354)"><line clip-path="url(#6b923fb5-656a-4a34-8166-0bed9c1d3795)" fill="none" x1="0" x2="876" y1="137" y2="137"/></g></g><g fill="white" fill-opacity="1" font-family="sans-serif" font-size="11px" image-rendering="optimizeQuality" stroke="white" stroke-opacity="1" text-rendering="geometricPrecision" transform="translate(57,359)"><rect clip-path="url(#39ad88ec-ab09-422e-994d-349ef45561ac)" height="17" stroke="none" width="226" x="9" y="-1"/><text clip-path="url(#39ad88ec-ab09-422e-994d-349ef45561ac)" fill="black" stroke="none" x="10" xml:space="preserve" y="12">[alt [campos obligatorios completos y válidos]]</text></g><g fill="white" fill-opacity="1" font-family="sans-serif" font-size="11px" image-rendering="optimizeQuality" stroke="white" stroke-opacity="1" text-rendering="geometricPrecision" transform="translate(57,497)"><rect clip-path="url(#348109d2-35ec-4799-9b1b-fc0d280153ff)" height="17" stroke="none" width="136" x="9" y="-1"/><text clip-path="url(#348109d2-35ec-4799-9b1b-fc0d280153ff)" fill="black" stroke="none" x="10" xml:space="preserve" y="12">[[campo faltante o inválido]]</text></g><g fill="black" fill-opacity="1" font-family="sans-serif" font-size="11px" image-rendering="optimizeQuality" stroke="black" stroke-opacity="1" text-rendering="geometricPrecision" transform="translate(2,37)"><text clip-path="url(#02fc5c94-bd66-42bd-bf0f-f411de8424be)" stroke="none" x="10" xml:space="preserve" y="12">Propietario de mascota</text></g><g fill="black" fill-opacity="1" font-family="sans-serif" font-size="11px" image-rendering="optimizeQuality" stroke="black" stroke-opacity="1" text-rendering="geometricPrecision" transform="translate(246,37)"><text clip-path="url(#702e0936-fb3a-44b7-a343-dfc7598483a5)" stroke="none" x="4" xml:space="preserve" y="12">InterfazRegistroMascota</text></g><g fill="black" fill-opacity="1" font-family="sans-serif" font-size="11px" image-rendering="optimizeQuality" stroke="black" stroke-opacity="1" text-rendering="geometricPrecision" transform="translate(527,37)"><text clip-path="url(#c8f5e4b6-6e87-425b-ae7f-baf4b28c14a2)" stroke="none" x="4" xml:space="preserve" y="12">ControladorMascota</text></g><g fill="black" fill-opacity="1" font-family="sans-serif" font-size="11px" image-rendering="optimizeQuality" stroke="black" stroke-opacity="1" text-rendering="geometricPrecision" transform="translate(803,37)"><text clip-path="url(#ea0efefe-41da-42b5-aeb3-06783adcc7c2)" stroke="none" x="4" xml:space="preserve" y="12">RepositorioMascota</text></g><g data="{&quot;name&quot;:&quot;seleccionarRegistrarMascota()&quot;,&quot;modelType&quot;:&quot;Message&quot;}" hyper="" model-id="connector-PdnO0vmGAqDIrxLD" style="pointer-events: auto; cursor: pointer;"><g fill="black" fill-opacity="1" font-family="sans-serif" font-size="11px" image-rendering="optimizeQuality" stroke="black" stroke-linecap="butt" stroke-linejoin="round" stroke-opacity="1" text-rendering="geometricPrecision" transform="translate(23,29)"><line clip-path="url(#0670114b-9c14-4392-ad17-63a5f75705e3)" fill="none" x1="50" x2="283" y1="50" y2="50"/><polygon clip-path="url(#0670114b-9c14-4392-ad17-63a5f75705e3)" points=" 283 50 271 44 271 56" stroke="none"/><polygon clip-path="url(#0670114b-9c14-4392-ad17-63a5f75705e3)" fill="none" points=" 283 50 271 44 271 56"/></g></g><g data="{&quot;name&quot;:&quot;enviarFormulario(datosMascota)&quot;,&quot;modelType&quot;:&quot;Message&quot;}" hyper="" model-id="connector-UPEu0vmGAqDIrxMa" style="pointer-events: auto; cursor: pointer;"><g fill="black" fill-opacity="1" font-family="sans-serif" font-size="11px" image-rendering="optimizeQuality" stroke="black" stroke-linecap="butt" stroke-linejoin="round" stroke-opacity="1" text-rendering="geometricPrecision" transform="translate(23,228)"><line clip-path="url(#b146951e-ac1b-41e1-a5a9-80b7438aa552)" fill="none" x1="50" x2="283" y1="50" y2="50"/><polygon clip-path="url(#b146951e-ac1b-41e1-a5a9-80b7438aa552)" points=" 283 50 271 44 271 56" stroke="none"/><polygon clip-path="url(#b146951e-ac1b-41e1-a5a9-80b7438aa552)" fill="none" points=" 283 50 271 44 271 56"/></g></g><g data="{&quot;name&quot;:&quot;registrarMascota(datosMascota)&quot;,&quot;modelType&quot;:&quot;Message&quot;}" hyper="" model-id="connector-Fn0u0vmGAqDIrxM5" style="pointer-events: auto; cursor: pointer;"><g fill="black" fill-opacity="1" font-family="sans-serif" font-size="11px" image-rendering="optimizeQuality" stroke="black" stroke-linecap="butt" stroke-linejoin="round" stroke-opacity="1" text-rendering="geometricPrecision" transform="translate(264,258)"><line clip-path="url(#ab67b49f-631c-4a32-932e-5f580c45f55f)" fill="none" x1="50" x2="313" y1="50" y2="50"/><polygon clip-path="url(#ab67b49f-631c-4a32-932e-5f580c45f55f)" points=" 313 50 301 44 301 56" stroke="none"/><polygon clip-path="url(#ab67b49f-631c-4a32-932e-5f580c45f55f)" fill="none" points=" 313 50 301 44 301 56"/></g></g><g data="{&quot;name&quot;:&quot;guardarMascota(datosMascota)&quot;,&quot;modelType&quot;:&quot;Message&quot;}" hyper="" model-id="connector-6UCu0vmGAqDIrxNl" style="pointer-events: auto; cursor: pointer;"><g fill="black" fill-opacity="1" font-family="sans-serif" font-size="11px" image-rendering="optimizeQuality" stroke="black" stroke-linecap="butt" stroke-linejoin="round" stroke-opacity="1" text-rendering="geometricPrecision" transform="translate(535,322)"><line clip-path="url(#b5a1061f-be06-4b4b-a993-5d80b43c3442)" fill="none" x1="50" x2="317" y1="50" y2="50"/><polygon clip-path="url(#b5a1061f-be06-4b4b-a993-5d80b43c3442)" points=" 317 50 305 44 305 56" stroke="none"/><polygon clip-path="url(#b5a1061f-be06-4b4b-a993-5d80b43c3442)" fill="none" points=" 317 50 305 44 305 56"/></g></g><g data="{&quot;name&quot;:&quot;mostrarFormulario()&quot;,&quot;modelType&quot;:&quot;Message&quot;}" hyper="" model-id="connector-Tebu0vmGAqDIrxOz" style="pointer-events: auto; cursor: pointer;"><g fill="black" fill-opacity="1" font-family="sans-serif" font-size="11px" image-rendering="optimizeQuality" stroke="black" stroke-dasharray="8,3" stroke-linecap="butt" stroke-linejoin="round" stroke-miterlimit="0" stroke-opacity="1" text-rendering="geometricPrecision" transform="translate(23,66)"><line clip-path="url(#1ef830e8-fa2d-4223-b201-bbfe771f1e6e)" fill="none" x1="283" x2="50" y1="50" y2="50"/><line clip-path="url(#1ef830e8-fa2d-4223-b201-bbfe771f1e6e)" fill="none" stroke-dasharray="none" stroke-miterlimit="10" x1="50" x2="62" y1="50" y2="56"/><line clip-path="url(#1ef830e8-fa2d-4223-b201-bbfe771f1e6e)" fill="none" stroke-dasharray="none" stroke-miterlimit="10" x1="50" x2="62" y1="50" y2="44"/></g></g><g data="{&quot;name&quot;:&quot;adjuntarFotografia(foto)&quot;,&quot;modelType&quot;:&quot;Message&quot;}" hyper="" model-id="connector-O2o.0vmGAqDIrxQn" style="pointer-events: auto; cursor: pointer;"><g fill="black" fill-opacity="1" font-family="sans-serif" font-size="11px" image-rendering="optimizeQuality" stroke="black" stroke-linecap="butt" stroke-linejoin="round" stroke-opacity="1" text-rendering="geometricPrecision" transform="translate(23,139)"><line clip-path="url(#083decb8-f26c-4116-b92c-2586d332d920)" fill="none" x1="50" x2="283" y1="50" y2="50"/><line clip-path="url(#083decb8-f26c-4116-b92c-2586d332d920)" fill="none" x1="283" x2="271" y1="50" y2="44"/><line clip-path="url(#083decb8-f26c-4116-b92c-2586d332d920)" fill="none" x1="283" x2="271" y1="50" y2="56"/></g></g><g data="{&quot;name&quot;:&quot;mascotaAlmacenada()&quot;,&quot;modelType&quot;:&quot;Message&quot;}" hyper="" model-id="connector-66H.0vmGAqDIrxSy" style="pointer-events: auto; cursor: pointer;"><g fill="black" fill-opacity="1" font-family="sans-serif" font-size="11px" image-rendering="optimizeQuality" stroke="black" stroke-dasharray="8,3" stroke-linecap="butt" stroke-linejoin="round" stroke-miterlimit="0" stroke-opacity="1" text-rendering="geometricPrecision" transform="translate(535,358)"><line clip-path="url(#3771347c-cd2d-4efa-aeb4-ee2bd49a187b)" fill="none" x1="317" x2="50" y1="50" y2="50"/><line clip-path="url(#3771347c-cd2d-4efa-aeb4-ee2bd49a187b)" fill="none" stroke-dasharray="none" stroke-miterlimit="10" x1="50" x2="62" y1="50" y2="56"/><line clip-path="url(#3771347c-cd2d-4efa-aeb4-ee2bd49a187b)" fill="none" stroke-dasharray="none" stroke-miterlimit="10" x1="50" x2="62" y1="50" y2="44"/></g></g><g data="{&quot;name&quot;:&quot;registroExitoso()&quot;,&quot;modelType&quot;:&quot;Message&quot;}" hyper="" model-id="connector-ktkB0vmGAqDIrxTz" style="pointer-events: auto; cursor: pointer;"><g fill="black" fill-opacity="1" font-family="sans-serif" font-size="11px" image-rendering="optimizeQuality" stroke="black" stroke-dasharray="8,3" stroke-linecap="butt" stroke-linejoin="round" stroke-miterlimit="0" stroke-opacity="1" text-rendering="geometricPrecision" transform="translate(264,376)"><line clip-path="url(#0784e5a8-b507-424c-ac68-00a7cd25881d)" fill="none" x1="313" x2="50" y1="50" y2="50"/><line clip-path="url(#0784e5a8-b507-424c-ac68-00a7cd25881d)" fill="none" stroke-dasharray="none" stroke-miterlimit="10" x1="50" x2="62" y1="50" y2="56"/><line clip-path="url(#0784e5a8-b507-424c-ac68-00a7cd25881d)" fill="none" stroke-dasharray="none" stroke-miterlimit="10" x1="50" x2="62" y1="50" y2="44"/></g></g><g data="{&quot;name&quot;:&quot;confirmarRegistro()&quot;,&quot;modelType&quot;:&quot;Message&quot;}" hyper="" model-id="connector-veiB0vmGAqDIrxUh" style="pointer-events: auto; cursor: pointer;"><g fill="black" fill-opacity="1" font-family="sans-serif" font-size="11px" image-rendering="optimizeQuality" stroke="black" stroke-dasharray="8,3" stroke-linecap="butt" stroke-linejoin="round" stroke-miterlimit="0" stroke-opacity="1" text-rendering="geometricPrecision" transform="translate(23,401)"><line clip-path="url(#ddebbb7d-f694-4c23-be7a-ed876642d9a2)" fill="none" x1="283" x2="50" y1="50" y2="50"/><line clip-path="url(#ddebbb7d-f694-4c23-be7a-ed876642d9a2)" fill="none" stroke-dasharray="none" stroke-miterlimit="10" x1="50" x2="62" y1="50" y2="56"/><line clip-path="url(#ddebbb7d-f694-4c23-be7a-ed876642d9a2)" fill="none" stroke-dasharray="none" stroke-miterlimit="10" x1="50" x2="62" y1="50" y2="44"/></g></g><g data="{&quot;name&quot;:&quot;errorValidacion(campo)&quot;,&quot;modelType&quot;:&quot;Message&quot;}" hyper="" model-id="connector-n2WB0vmGAqDIrxU5" style="pointer-events: auto; cursor: pointer;"><g fill="black" fill-opacity="1" font-family="sans-serif" font-size="11px" image-rendering="optimizeQuality" stroke="black" stroke-dasharray="8,3" stroke-linecap="butt" stroke-linejoin="round" stroke-miterlimit="0" stroke-opacity="1" text-rendering="geometricPrecision" transform="translate(264,493)"><line clip-path="url(#85769051-891c-42d9-ba87-49d64dcd29ab)" fill="none" x1="313" x2="50" y1="50" y2="50"/><line clip-path="url(#85769051-891c-42d9-ba87-49d64dcd29ab)" fill="none" stroke-dasharray="none" stroke-miterlimit="10" x1="50" x2="62" y1="50" y2="56"/><line clip-path="url(#85769051-891c-42d9-ba87-49d64dcd29ab)" fill="none" stroke-dasharray="none" stroke-miterlimit="10" x1="50" x2="62" y1="50" y2="44"/></g></g><g data="{&quot;name&quot;:&quot;mostrarMensajeError()&quot;,&quot;modelType&quot;:&quot;Message&quot;}" hyper="" model-id="connector-XxJB0vmGAqDIrxVg" style="pointer-events: auto; cursor: pointer;"><g fill="black" fill-opacity="1" font-family="sans-serif" font-size="11px" image-rendering="optimizeQuality" stroke="black" stroke-dasharray="8,3" stroke-linecap="butt" stroke-linejoin="round" stroke-miterlimit="0" stroke-opacity="1" text-rendering="geometricPrecision" transform="translate(23,508)"><line clip-path="url(#43b8d145-dfbb-4e44-980b-152cb5717763)" fill="none" x1="283" x2="50" y1="50" y2="50"/><line clip-path="url(#43b8d145-dfbb-4e44-980b-152cb5717763)" fill="none" stroke-dasharray="none" stroke-miterlimit="10" x1="50" x2="62" y1="50" y2="56"/><line clip-path="url(#43b8d145-dfbb-4e44-980b-152cb5717763)" fill="none" stroke-dasharray="none" stroke-miterlimit="10" x1="50" x2="62" y1="50" y2="44"/></g></g><g fill="white" fill-opacity="1" font-family="sans-serif" font-size="11px" image-rendering="optimizeQuality" stroke="white" stroke-opacity="1" text-rendering="geometricPrecision" transform="translate(112,538)"><rect clip-path="url(#f7b0ba0b-0a10-4c36-870a-786bfa6ac54b)" height="15" stroke="none" width="153" x="0" y="0"/><text clip-path="url(#f7b0ba0b-0a10-4c36-870a-786bfa6ac54b)" fill="black" stroke="none" x="9" xml:space="preserve" y="12">4.1: mostrarMensajeError()</text></g><g fill="white" fill-opacity="1" font-family="sans-serif" font-size="11px" image-rendering="optimizeQuality" stroke="white" stroke-opacity="1" text-rendering="geometricPrecision" transform="translate(372,523)"><rect clip-path="url(#09a5d65f-0139-426d-ab1f-6c9efb817c64)" height="15" stroke="none" width="147" x="0" y="0"/><text clip-path="url(#09a5d65f-0139-426d-ab1f-6c9efb817c64)" fill="black" stroke="none" x="10" xml:space="preserve" y="12">4: errorValidacion(campo)</text></g><g fill="white" fill-opacity="1" font-family="sans-serif" font-size="11px" image-rendering="optimizeQuality" stroke="white" stroke-opacity="1" text-rendering="geometricPrecision" transform="translate(120,431)"><rect clip-path="url(#0910fa43-3d06-4332-ba58-2d847aa0d9b5)" height="15" stroke="none" width="136" x="0" y="0"/><text clip-path="url(#0910fa43-3d06-4332-ba58-2d847aa0d9b5)" fill="black" stroke="none" x="10" xml:space="preserve" y="12">3.3: confirmarRegistro()</text></g><g fill="white" fill-opacity="1" font-family="sans-serif" font-size="11px" image-rendering="optimizeQuality" stroke="white" stroke-opacity="1" text-rendering="geometricPrecision" transform="translate(384,406)"><rect clip-path="url(#422af104-670f-4a8b-91cd-3c5b56f5947d)" height="15" stroke="none" width="122" x="0" y="0"/><text clip-path="url(#422af104-670f-4a8b-91cd-3c5b56f5947d)" fill="black" stroke="none" x="9" xml:space="preserve" y="12">3.2: registroExitoso()</text></g><g fill="white" fill-opacity="1" font-family="sans-serif" font-size="11px" image-rendering="optimizeQuality" stroke="white" stroke-opacity="1" text-rendering="geometricPrecision" transform="translate(637,388)"><rect clip-path="url(#4121d393-9e8a-4499-986b-dc981fe5be0b)" height="15" stroke="none" width="161" x="0" y="0"/><text clip-path="url(#4121d393-9e8a-4499-986b-dc981fe5be0b)" fill="black" stroke="none" x="10" xml:space="preserve" y="12">3.1.2: mascotaAlmacenada()</text></g><g fill="white" fill-opacity="1" font-family="sans-serif" font-size="11px" image-rendering="optimizeQuality" stroke="white" stroke-opacity="1" text-rendering="geometricPrecision" transform="translate(109,154)"><rect clip-path="url(#12d96174-be70-45fc-88d6-d7ea92b7d594)" height="15" stroke="none" width="148" x="0" y="0"/><text clip-path="url(#12d96174-be70-45fc-88d6-d7ea92b7d594)" fill="black" stroke="none" x="9" xml:space="preserve" y="12">2: adjuntarFotografia(foto)</text></g><g fill="white" fill-opacity="1" font-family="sans-serif" font-size="11px" image-rendering="optimizeQuality" stroke="white" stroke-opacity="1" text-rendering="geometricPrecision" transform="translate(119,96)"><rect clip-path="url(#1071f50c-a7ea-4dd6-8caa-4e37ec5ee0a0)" height="15" stroke="none" width="139" x="0" y="0"/><text clip-path="url(#1071f50c-a7ea-4dd6-8caa-4e37ec5ee0a0)" fill="black" stroke="none" x="10" xml:space="preserve" y="12">1.1: mostrarFormulario()</text></g><g fill="white" fill-opacity="1" font-family="sans-serif" font-size="11px" image-rendering="optimizeQuality" stroke="white" stroke-opacity="1" text-rendering="geometricPrecision" transform="translate(615,352)"><rect clip-path="url(#537b7698-e4e5-4840-8a43-9fa8904356dc)" height="15" stroke="none" width="206" x="0" y="0"/><text clip-path="url(#537b7698-e4e5-4840-8a43-9fa8904356dc)" fill="black" stroke="none" x="10" xml:space="preserve" y="12">3.1.1: guardarMascota(datosMascota)</text></g><g fill="white" fill-opacity="1" font-family="sans-serif" font-size="11px" image-rendering="optimizeQuality" stroke="white" stroke-opacity="1" text-rendering="geometricPrecision" transform="translate(344,288)"><rect clip-path="url(#540a1b6b-d2eb-4c1d-a1e8-768a68234bf0)" height="15" stroke="none" width="200" x="0" y="0"/><text clip-path="url(#540a1b6b-d2eb-4c1d-a1e8-768a68234bf0)" fill="black" stroke="none" x="9" xml:space="preserve" y="12">3.1: registrarMascota(datosMascota)</text></g><g fill="white" fill-opacity="1" font-family="sans-serif" font-size="11px" image-rendering="optimizeQuality" stroke="white" stroke-opacity="1" text-rendering="geometricPrecision" transform="translate(92,258)"><rect clip-path="url(#fa32f233-496a-498a-a65a-5c6c4607795d)" height="15" stroke="none" width="191" x="0" y="0"/><text clip-path="url(#fa32f233-496a-498a-a65a-5c6c4607795d)" fill="black" stroke="none" x="10" xml:space="preserve" y="12">3: enviarFormulario(datosMascota)</text></g><g fill="white" fill-opacity="1" font-family="sans-serif" font-size="11px" image-rendering="optimizeQuality" stroke="white" stroke-opacity="1" text-rendering="geometricPrecision" transform="translate(97,59)"><rect clip-path="url(#ceca2123-31ab-444b-bbfa-b190b0cc6a86)" height="15" stroke="none" width="182" x="0" y="0"/><text clip-path="url(#ceca2123-31ab-444b-bbfa-b190b0cc6a86)" fill="black" stroke="none" x="9" xml:space="preserve" y="12">1: seleccionarRegistrarMascota()</text></g><g fill="rgb(120,120,120)" fill-opacity="1" font-size="10px" image-rendering="optimizeQuality" stroke="rgb(120,120,120)" stroke-opacity="1" text-rendering="geometricPrecision"></g></g></svg>