<?xml version="1.0" encoding="UTF-8"?><svg xmlns="http://www.w3.org/2000/svg" xmlns:xlink="http://www.w3.org/1999/xlink" color-interpolation="auto" color-rendering="auto" fill="rgb(0,0,0)" fill-opacity="0" font-family="'Dialog'" font-size="12px" font-style="normal" font-weight="normal" height="740" image-rendering="auto" shape-rendering="auto" stroke="rgb(0,0,0)" stroke-dasharray="none" stroke-dashoffset="0" stroke-linecap="square" stroke-linejoin="miter" stroke-miterlimit="10" stroke-opacity="0" stroke-width="1" text-rendering="auto" viewbox="0 0 580 740" width="580"><!--Generated by the Batik Graphics2D SVG Generator--><defs id="genericDefs"/><g><defs id="defs1"><clipPath clipPathUnits="userSpaceOnUse" id="d574d726-60d8-4d9f-9a4f-a155652a3494"><path d="M-7 -7 L31 -7 L31 31 L-7 31 L-7 -7 Z"/></clipPath><clipPath clipPathUnits="userSpaceOnUse" id="b8bc5447-eb53-4162-b393-2af0a181d98d"><path d="M-7 -7 L31 -7 L31 31 L-7 31 L-7 -7 Z"/></clipPath><clipPath clipPathUnits="userSpaceOnUse" id="ce5d6bd7-f488-4920-b818-90a37ffa6dd7"><path d="M-7 -7 L91 -7 L91 51 L-7 51 L-7 -7 Z"/></clipPath><clipPath clipPathUnits="userSpaceOnUse" id="533aa632-386f-45c8-9c83-bd38d037b706"><path d="M-7 -7 L91 -7 L91 51 L-7 51 L-7 -7 Z"/></clipPath><clipPath clipPathUnits="userSpaceOnUse" id="a51b8f98-e4ef-4960-bcfb-33e775ff5222"><path d="M-7 -7 L127 -7 L127 51 L-7 51 L-7 -7 Z"/></clipPath><clipPath clipPathUnits="userSpaceOnUse" id="dde02793-a08e-4348-808e-aa772b753bc8"><path d="M-7 -7 L127 -7 L127 51 L-7 51 L-7 -7 Z"/></clipPath><clipPath clipPathUnits="userSpaceOnUse" id="026ff4b3-c419-4162-a006-dc368a21e7a3"><path d="M-7 -7 L225 -7 L225 208 L-7 208 L-7 -7 Z"/></clipPath><clipPath clipPathUnits="userSpaceOnUse" id="1f77377d-aee5-4eae-8ed5-9cda04aac2d3"><path d="M-7 -7 L225 -7 L225 208 L-7 208 L-7 -7 Z"/></clipPath><clipPath clipPathUnits="userSpaceOnUse" id="76afd6df-4df3-4844-9695-9685bc886f2f"><path d="M-7 -7 L91 -7 L91 51 L-7 51 L-7 -7 Z"/></clipPath><clipPath clipPathUnits="userSpaceOnUse" id="14764811-d77f-4d65-a865-c6fdda837d09"><path d="M-7 -7 L91 -7 L91 51 L-7 51 L-7 -7 Z"/></clipPath><clipPath clipPathUnits="userSpaceOnUse" id="916376e4-03fe-49c2-a27c-981d9b76e4d4"><path d="M-7 -7 L91 -7 L91 51 L-7 51 L-7 -7 Z"/></clipPath><clipPath clipPathUnits="userSpaceOnUse" id="bc344876-67d3-414e-94ee-586e142b5f2c"><path d="M-7 -7 L91 -7 L91 51 L-7 51 L-7 -7 Z"/></clipPath><clipPath clipPathUnits="userSpaceOnUse" id="345a335b-23af-4760-bf2d-73b1b25f39d6"><path d="M-7 -7 L225 -7 L225 193 L-7 193 L-7 -7 Z"/></clipPath><clipPath clipPathUnits="userSpaceOnUse" id="a5893140-90fd-47c2-9cc2-bf4f156d44fe"><path d="M-7 -7 L91 -7 L91 51 L-7 51 L-7 -7 Z"/></clipPath><clipPath clipPathUnits="userSpaceOnUse" id="77b24fd1-5bc1-4403-b889-78038518403b"><path d="M-7 -7 L91 -7 L91 51 L-7 51 L-7 -7 Z"/></clipPath><clipPath clipPathUnits="userSpaceOnUse" id="84c38312-ab28-4e50-9d94-6dfd7655a4bb"><path d="M-7 -7 L31 -7 L31 31 L-7 31 L-7 -7 Z"/></clipPath><clipPath clipPathUnits="userSpaceOnUse" id="d72c246f-0b6f-4901-ac73-db6a6b2f7762"><path d="M-7 -7 L31 -7 L31 31 L-7 31 L-7 -7 Z"/></clipPath><clipPath clipPathUnits="userSpaceOnUse" id="f1c48d80-6c37-409e-b14e-054401dc0c4e"><path d="M-7 -7 L117 -7 L117 51 L-7 51 L-7 -7 Z"/></clipPath><clipPath clipPathUnits="userSpaceOnUse" id="2ac046dc-022a-4f83-a92e-70d7bee68bfc"><path d="M-7 -7 L117 -7 L117 51 L-7 51 L-7 -7 Z"/></clipPath><clipPath clipPathUnits="userSpaceOnUse" id="47f7fbac-0ff9-41b9-8986-5addca647c67"><path d="M-7 -7 L119 -7 L119 51 L-7 51 L-7 -7 Z"/></clipPath><clipPath clipPathUnits="userSpaceOnUse" id="77125ce5-8874-4df4-a603-3ab019256b38"><path d="M-7 -7 L119 -7 L119 51 L-7 51 L-7 -7 Z"/></clipPath><clipPath clipPathUnits="userSpaceOnUse" id="9e5d38bd-294a-4d37-a69a-2697075dfa28"><path d="M-7 -7 L119 -7 L119 51 L-7 51 L-7 -7 Z"/></clipPath><clipPath clipPathUnits="userSpaceOnUse" id="7a1d51dc-56ba-463e-a489-54a4f4367d08"><path d="M-7 -7 L119 -7 L119 51 L-7 51 L-7 -7 Z"/></clipPath><clipPath clipPathUnits="userSpaceOnUse" id="713549d9-c6ca-494c-9f25-3f2d486a710e"><path d="M-80 -15 L160 -15 L160 30 L-80 30 L-80 -15 Z"/></clipPath><clipPath clipPathUnits="userSpaceOnUse" id="d59dc089-f152-4294-82e6-9ecbaa944f13"><path d="M-116 -15 L232 -15 L232 30 L-116 30 L-116 -15 Z"/></clipPath><clipPath clipPathUnits="userSpaceOnUse" id="9cffe0f6-7f6b-420a-9b06-a00c2c021233"><path d="M-214 -15 L428 -15 L428 30 L-214 30 L-214 -15 Z"/></clipPath><clipPath clipPathUnits="userSpaceOnUse" id="1bffb649-62b2-4251-a078-336680ad4d10"><path d="M-106 -15 L212 -15 L212 30 L-106 30 L-106 -15 Z"/></clipPath><clipPath clipPathUnits="userSpaceOnUse" id="178c2225-3912-4bc0-b08b-48887f04c21f"><path d="M-108 -15 L216 -15 L216 30 L-108 30 L-108 -15 Z"/></clipPath><clipPath clipPathUnits="userSpaceOnUse" id="9291f68a-a2cc-4701-b655-990f0d1f51a2"><path d="M0 0 L104 0 L104 177 L0 177 L0 0 Z"/></clipPath><clipPath clipPathUnits="userSpaceOnUse" id="f2bd5b0c-d2e9-4eba-a12b-f2f0a3bf4875"><path d="M0 0 L0 68 L41 68 L41 101 L0 101 L0 177 L104 177 L104 0 Z"/></clipPath><clipPath clipPathUnits="userSpaceOnUse" id="c59c633c-1efd-4a73-8d3c-bc08e2efeb0e"><path d="M0 0 L104 0 L104 174 L0 174 L0 0 Z"/></clipPath><clipPath clipPathUnits="userSpaceOnUse" id="cd66cc05-e650-4045-a5f0-e2e6f02ba70e"><path d="M0 0 L0 65 L41 65 L41 103 L0 103 L0 174 L104 174 L104 0 Z"/></clipPath><clipPath clipPathUnits="userSpaceOnUse" id="61525f1e-dd37-44bd-a4f0-9b9ba8961784"><path d="M0 0 L104 0 L104 174 L0 174 L0 0 Z"/></clipPath><clipPath clipPathUnits="userSpaceOnUse" id="ad7d14d6-bba3-4749-b9f4-5f77ddf907a3"><path d="M0 0 L0 63 L44 63 L44 108 L0 108 L0 174 L104 174 L104 0 Z"/></clipPath><clipPath clipPathUnits="userSpaceOnUse" id="9f83e455-ea5a-4fd5-b65e-199e2a96a274"><path d="M0 0 L104 0 L104 189 L0 189 L0 0 Z"/></clipPath><clipPath clipPathUnits="userSpaceOnUse" id="9b362854-b6b4-4d47-9ac2-9afc6b1f98ba"><path d="M0 0 L0 64 L43 64 L43 118 L0 118 L0 189 L104 189 L104 0 Z"/></clipPath><clipPath clipPathUnits="userSpaceOnUse" id="b0b7bdcf-ab3b-46fc-a87a-5e4ea863d17a"><path d="M0 0 L104 0 L104 189 L0 189 L0 0 Z"/></clipPath><clipPath clipPathUnits="userSpaceOnUse" id="f5d30717-5254-49e0-8240-fb2955830607"><path d="M0 0 L0 189 L104 189 L104 118 L56 118 L56 66 L104 66 L104 0 Z"/></clipPath><clipPath clipPathUnits="userSpaceOnUse" id="2fbf002b-8692-4d37-90a7-50348e40066f"><path d="M0 0 L323 0 L323 279 L0 279 L0 0 Z"/></clipPath><clipPath clipPathUnits="userSpaceOnUse" id="53209872-6cdc-41b3-aa25-8fecd3df979b"><path d="M250 26 L250 41 L90 41 L90 26 ZM211 195 L211 247 L108 247 L108 195 ZM0 0 L0 279 L323 279 L323 0 Z"/></clipPath><clipPath clipPathUnits="userSpaceOnUse" id="d32c9b74-9659-4bb5-aa76-04ec23fa735d"><path d="M0 0 L233 0 L233 104 L0 104 L0 0 Z"/></clipPath><clipPath clipPathUnits="userSpaceOnUse" id="5dc9a673-445c-4b79-a97e-39b1cbe68031"><path d="M0 0 L0 104 L233 104 L233 0 L162 0 L162 50 L59 50 L59 0 Z"/></clipPath><clipPath clipPathUnits="userSpaceOnUse" id="ef954c7b-fb55-4806-826e-e4f811e2cd7e"><path d="M0 0 L195 0 L195 192 L0 192 L0 0 Z"/></clipPath><clipPath clipPathUnits="userSpaceOnUse" id="582788cc-a597-433f-839b-5f4fd03943b3"><path d="M0 0 L0 72 L45 72 L45 104 L0 104 L0 192 L195 192 L195 98 L154 98 L154 67 L195 67 L195 0 Z"/></clipPath><clipPath clipPathUnits="userSpaceOnUse" id="d114e532-5c1a-4cb3-a62c-6ce16c9bed03"><path d="M0 0 L104 0 L104 182 L0 182 L0 0 Z"/></clipPath><clipPath clipPathUnits="userSpaceOnUse" id="93c0b3eb-2895-4bdb-ab10-323d90d19947"><path d="M0 0 L0 182 L104 182 L104 98 L54 98 L54 67 L104 67 L104 0 Z"/></clipPath><clipPath clipPathUnits="userSpaceOnUse" id="ac91ed66-744e-46e2-96cd-f73b1ca1ef00"><path d="M0 0 L346 0 L346 414 L0 414 L0 0 Z"/></clipPath><clipPath clipPathUnits="userSpaceOnUse" id="6be090da-985a-489c-aba4-0fcd113c190c"><path d="M180 150 L180 202 L59 202 L59 150 ZM159 277 L159 308 L57 308 L57 277 ZM0 0 L0 414 L346 414 L346 216 L286 216 L286 176 L346 176 L346 0 L222 0 L222 43 L119 43 L119 0 Z"/></clipPath><clipPath clipPathUnits="userSpaceOnUse" id="83de2d49-b710-48d8-b9fe-c69e53b67348"><path d="M0 0 L104 0 L104 120 L0 120 L0 0 Z"/></clipPath><clipPath clipPathUnits="userSpaceOnUse" id="06efd400-151a-4682-a00b-c882d324ce4b"><path d="M0 0 L0 120 L104 120 L104 0 Z"/></clipPath><clipPath clipPathUnits="userSpaceOnUse" id="b8a5e9b0-db72-43d9-a19b-bad70c8198b6"><path d="M0 0 L104 0 L104 123 L0 123 L0 0 Z"/></clipPath><clipPath clipPathUnits="userSpaceOnUse" id="cd2fa394-481a-4619-8b8c-0eeba5becd8e"><path d="M0 0 L0 123 L104 123 L104 0 Z"/></clipPath><clipPath clipPathUnits="userSpaceOnUse" id="9c3abe42-abe6-407b-8dc2-c348b230a5db"><path d="M-119 -40 L238 -40 L238 80 L-119 80 L-119 -40 Z"/></clipPath><clipPath clipPathUnits="userSpaceOnUse" id="dda93739-82cc-4780-a9cd-f9a6768cd2f0"><path d="M-102 -31 L204 -31 L204 62 L-102 62 L-102 -31 Z"/></clipPath><clipPath clipPathUnits="userSpaceOnUse" id="59c2c64d-9bcb-4366-8359-68915d46a7fa"><path d="M-112 -32 L224 -32 L224 64 L-112 64 L-112 -32 Z"/></clipPath><clipPath clipPathUnits="userSpaceOnUse" id="6c34aaf4-550d-4403-95be-0f23f4aaee88"><path d="M-103 -52 L206 -52 L206 104 L-103 104 L-103 -52 Z"/></clipPath><clipPath clipPathUnits="userSpaceOnUse" id="96b1684d-cc2d-4aaa-9c8e-298c20774cf7"><path d="M-160 -15 L320 -15 L320 30 L-160 30 L-160 -15 Z"/></clipPath><clipPath clipPathUnits="userSpaceOnUse" id="40184958-4aaf-4494-bc8e-f5e493bcd4f5"><path d="M-121 -52 L242 -52 L242 104 L-121 104 L-121 -52 Z"/></clipPath><clipPath clipPathUnits="userSpaceOnUse" id="642a3162-a8a4-4db1-a02a-783e9b125e3d"><path d="M-115 -54 L230 -54 L230 108 L-115 108 L-115 -54 Z"/></clipPath><clipPath clipPathUnits="userSpaceOnUse" id="f9b30b3b-8501-436b-a12a-8bddad01a97c"><path d="M-99 -45 L198 -45 L198 90 L-99 90 L-99 -45 Z"/></clipPath><clipPath clipPathUnits="userSpaceOnUse" id="1be29bd0-8050-4398-9292-1b21e145eb42"><path d="M-111 -38 L222 -38 L222 76 L-111 76 L-111 -38 Z"/></clipPath><clipPath clipPathUnits="userSpaceOnUse" id="cd50c199-1e70-45b7-bc34-ddafbdb84718"><path d="M-104 -33 L208 -33 L208 66 L-104 66 L-104 -33 Z"/></clipPath></defs><g fill="white" fill-opacity="1" stroke="white" stroke-opacity="1" text-rendering="geometricPrecision"><rect height="740" stroke="none" width="580" x="0" y="0"/></g><g data="{&quot;name&quot;:&quot;&quot;,&quot;modelType&quot;:&quot;InitialPseudoState&quot;}" hyper="" model-id="shape-Ynv80vmGAqDIrwyb" style="pointer-events: auto; cursor: pointer;"><g fill="black" fill-opacity="1" font-family="sans-serif" font-size="11px" image-rendering="optimizeQuality" stroke="black" stroke-opacity="1" text-rendering="geometricPrecision" transform="translate(164,2)"><circle clip-path="url(#b8bc5447-eb53-4162-b393-2af0a181d98d)" cx="9.5" cy="9.5" r="9.5" stroke="none"/></g></g><g data="{&quot;name&quot;:&quot;Creada&quot;,&quot;modelType&quot;:&quot;State2&quot;}" hyper="" model-id="shape-QmgC0vmGAqDIrwyq" style="pointer-events: auto; cursor: pointer;"><g fill="black" fill-opacity="1" font-family="sans-serif" font-size="11px" image-rendering="optimizeQuality" stroke="black" stroke-linecap="butt" stroke-linejoin="round" stroke-miterlimit="0" stroke-opacity="1" text-rendering="geometricPrecision" transform="translate(134,94)"><rect clip-path="url(#533aa632-386f-45c8-9c83-bd38d037b706)" fill="none" height="40" rx="10" ry="10" width="80" x="0" y="0"/></g></g><g data="{&quot;name&quot;:&quot;Pendiente de revisión&quot;,&quot;modelType&quot;:&quot;State2&quot;}" hyper="" model-id="shape-eCQC0vmGAqDIrwy1" style="pointer-events: auto; cursor: pointer;"><g fill="black" fill-opacity="1" font-family="sans-serif" font-size="11px" image-rendering="optimizeQuality" stroke="black" stroke-linecap="butt" stroke-linejoin="round" stroke-miterlimit="0" stroke-opacity="1" text-rendering="geometricPrecision" transform="translate(116,205)"><rect clip-path="url(#dde02793-a08e-4348-808e-aa772b753bc8)" fill="none" height="40" rx="10" ry="10" width="116" x="0" y="0"/></g></g><g data="{&quot;name&quot;:&quot;En revisión&quot;,&quot;modelType&quot;:&quot;State2&quot;}" hyper="" model-id="shape-TmoC0vmGAqDIrwzE" style="pointer-events: auto; cursor: pointer;"><g fill="black" fill-opacity="1" font-family="sans-serif" font-size="11px" image-rendering="optimizeQuality" stroke="black" stroke-linecap="butt" stroke-linejoin="round" stroke-miterlimit="0" stroke-opacity="1" text-rendering="geometricPrecision" transform="translate(67,316)"><rect clip-path="url(#1f77377d-aee5-4eae-8ed5-9cda04aac2d3)" fill="none" height="197" rx="10" ry="10" width="214" x="0" y="0"/></g></g><g data="{&quot;name&quot;:&quot;Aprovada&quot;,&quot;modelType&quot;:&quot;State2&quot;}" hyper="" model-id="shape-t04C0vmGAqDIrwzT" style="pointer-events: auto; cursor: pointer;"><g fill="black" fill-opacity="1" font-family="sans-serif" font-size="11px" image-rendering="optimizeQuality" stroke="black" stroke-linecap="butt" stroke-linejoin="round" stroke-miterlimit="0" stroke-opacity="1" text-rendering="geometricPrecision" transform="translate(84,599)"><rect clip-path="url(#14764811-d77f-4d65-a865-c6fdda837d09)" fill="none" height="40" rx="10" ry="10" width="80" x="0" y="0"/></g></g><g data="{&quot;name&quot;:&quot;Rechazada&quot;,&quot;modelType&quot;:&quot;State2&quot;}" hyper="" model-id="shape-UBEC0vmGAqDIrwzc" style="pointer-events: auto; cursor: pointer;"><g fill="black" fill-opacity="1" font-family="sans-serif" font-size="11px" image-rendering="optimizeQuality" stroke="black" stroke-linecap="butt" stroke-linejoin="round" stroke-miterlimit="0" stroke-opacity="1" text-rendering="geometricPrecision" transform="translate(184,599)"><rect clip-path="url(#bc344876-67d3-414e-94ee-586e142b5f2c)" fill="none" height="40" rx="10" ry="10" width="80" x="0" y="0"/></g></g><g data="{&quot;name&quot;:&quot;Cancelada&quot;,&quot;modelType&quot;:&quot;State2&quot;}" hyper="" model-id="shape-gY0C0vmGAqDIrwzv" style="pointer-events: auto; cursor: pointer;"><g fill="black" fill-opacity="1" font-family="sans-serif" font-size="11px" image-rendering="optimizeQuality" stroke="black" stroke-linecap="butt" stroke-linejoin="round" stroke-miterlimit="0" stroke-opacity="1" text-rendering="geometricPrecision" transform="translate(411,401)"><rect clip-path="url(#77b24fd1-5bc1-4403-b889-78038518403b)" fill="none" height="40" rx="10" ry="10" width="80" x="0" y="0"/></g></g><g data="{&quot;name&quot;:&quot;&quot;,&quot;modelType&quot;:&quot;FinalState2&quot;}" hyper="" model-id="shape-raSC0vmGAqDIrw0I" style="pointer-events: auto; cursor: pointer;"><g fill="black" fill-opacity="1" font-family="sans-serif" font-size="11px" image-rendering="optimizeQuality" stroke="black" stroke-opacity="1" text-rendering="geometricPrecision" transform="translate(214,716)"><circle clip-path="url(#d72c246f-0b6f-4901-ac73-db6a6b2f7762)" cx="10" cy="10" r="7" stroke="none"/><circle clip-path="url(#d72c246f-0b6f-4901-ac73-db6a6b2f7762)" cx="10" cy="10" fill="none" r="10" stroke-linecap="butt" stroke-linejoin="round" stroke-miterlimit="0"/></g></g><g data="{&quot;name&quot;:&quot;Validar identidad&quot;,&quot;modelType&quot;:&quot;State2&quot;}" hyper="" model-id="shape-Li5S0vmGAqDIrxAC" style="pointer-events: auto; cursor: pointer;"><g fill="black" fill-opacity="1" font-family="sans-serif" font-size="11px" image-rendering="optimizeQuality" stroke="black" stroke-linecap="butt" stroke-linejoin="round" stroke-miterlimit="0" stroke-opacity="1" text-rendering="geometricPrecision" transform="translate(121,345)"><rect clip-path="url(#2ac046dc-022a-4f83-a92e-70d7bee68bfc)" fill="none" height="40" rx="10" ry="10" width="106" x="0" y="0"/></g></g><g data="{&quot;name&quot;:&quot;Revisar información&quot;,&quot;modelType&quot;:&quot;State2&quot;}" hyper="" model-id="shape-CxdS0vmGAqDIrxAf" style="pointer-events: auto; cursor: pointer;"><g fill="black" fill-opacity="1" font-family="sans-serif" font-size="11px" image-rendering="optimizeQuality" stroke="black" stroke-linecap="butt" stroke-linejoin="round" stroke-miterlimit="0" stroke-opacity="1" text-rendering="geometricPrecision" transform="translate(119,402)"><rect clip-path="url(#77125ce5-8874-4df4-a603-3ab019256b38)" fill="none" height="40" rx="10" ry="10" width="108" x="0" y="0"/></g></g><g data="{&quot;name&quot;:&quot;Evaluar solicitud&quot;,&quot;modelType&quot;:&quot;State2&quot;}" hyper="" model-id="shape-pRTS0vmGAqDIrxAy" style="pointer-events: auto; cursor: pointer;"><g fill="black" fill-opacity="1" font-family="sans-serif" font-size="11px" image-rendering="optimizeQuality" stroke="black" stroke-linecap="butt" stroke-linejoin="round" stroke-miterlimit="0" stroke-opacity="1" text-rendering="geometricPrecision" transform="translate(121,462)"><rect clip-path="url(#7a1d51dc-56ba-463e-a489-54a4f4367d08)" fill="none" height="40" rx="10" ry="10" width="108" x="0" y="0"/></g></g><g fill="black" fill-opacity="1" font-family="sans-serif" font-size="11px" image-rendering="optimizeQuality" stroke="black" stroke-opacity="1" text-rendering="geometricPrecision" transform="translate(134,94)"><text clip-path="url(#713549d9-c6ca-494c-9f25-3f2d486a710e)" stroke="none" x="21" xml:space="preserve" y="12">Creada</text></g><g fill="black" fill-opacity="1" font-family="sans-serif" font-size="11px" image-rendering="optimizeQuality" stroke="black" stroke-opacity="1" text-rendering="geometricPrecision" transform="translate(116,205)"><text clip-path="url(#d59dc089-f152-4294-82e6-9ecbaa944f13)" stroke="none" x="5" xml:space="preserve" y="12">Pendiente de revisión</text></g><g fill="black" fill-opacity="1" font-family="sans-serif" font-size="11px" image-rendering="optimizeQuality" stroke="black" stroke-opacity="1" text-rendering="geometricPrecision" transform="translate(67,316)"><text clip-path="url(#9cffe0f6-7f6b-420a-9b06-a00c2c021233)" stroke="none" x="79" xml:space="preserve" y="12">En revisión</text></g><g fill="black" fill-opacity="1" font-family="sans-serif" font-size="11px" image-rendering="optimizeQuality" stroke="black" stroke-opacity="1" text-rendering="geometricPrecision" transform="translate(84,599)"><text clip-path="url(#713549d9-c6ca-494c-9f25-3f2d486a710e)" stroke="none" x="15" xml:space="preserve" y="12">Aprovada</text></g><g fill="black" fill-opacity="1" font-family="sans-serif" font-size="11px" image-rendering="optimizeQuality" stroke="black" stroke-opacity="1" text-rendering="geometricPrecision" transform="translate(184,599)"><text clip-path="url(#713549d9-c6ca-494c-9f25-3f2d486a710e)" stroke="none" x="12" xml:space="preserve" y="12">Rechazada</text></g><g fill="black" fill-opacity="1" font-family="sans-serif" font-size="11px" image-rendering="optimizeQuality" stroke="black" stroke-opacity="1" text-rendering="geometricPrecision" transform="translate(411,401)"><text clip-path="url(#713549d9-c6ca-494c-9f25-3f2d486a710e)" stroke="none" x="13" xml:space="preserve" y="12">Cancelada</text></g><g fill="black" fill-opacity="1" font-family="sans-serif" font-size="11px" image-rendering="optimizeQuality" stroke="black" stroke-opacity="1" text-rendering="geometricPrecision" transform="translate(121,345)"><text clip-path="url(#1bffb649-62b2-4251-a078-336680ad4d10)" stroke="none" x="12" xml:space="preserve" y="12">Validar identidad</text></g><g fill="black" fill-opacity="1" font-family="sans-serif" font-size="11px" image-rendering="optimizeQuality" stroke="black" stroke-opacity="1" text-rendering="geometricPrecision" transform="translate(119,402)"><text clip-path="url(#178c2225-3912-4bc0-b08b-48887f04c21f)" stroke="none" x="4" xml:space="preserve" y="12">Revisar información</text></g><g fill="black" fill-opacity="1" font-family="sans-serif" font-size="11px" image-rendering="optimizeQuality" stroke="black" stroke-opacity="1" text-rendering="geometricPrecision" transform="translate(121,462)"><text clip-path="url(#178c2225-3912-4bc0-b08b-48887f04c21f)" stroke="none" x="13" xml:space="preserve" y="12">Evaluar solicitud</text></g><g data="{&quot;name&quot;:&quot;crearSolicitud / registrarSolicitud()&quot;,&quot;modelType&quot;:&quot;Transition2&quot;}" hyper="" model-id="connector-5UeC0vmGAqDIrw0n" style="pointer-events: auto; cursor: pointer;"><g fill="black" fill-opacity="1" font-family="sans-serif" font-size="11px" image-rendering="optimizeQuality" stroke="black" stroke-linecap="butt" stroke-linejoin="round" stroke-opacity="1" text-rendering="geometricPrecision" transform="translate(124,-30)"><line clip-path="url(#f2bd5b0c-d2e9-4eba-a12b-f2f0a3bf4875)" fill="none" x1="50" x2="50" y1="50" y2="123"/><line clip-path="url(#f2bd5b0c-d2e9-4eba-a12b-f2f0a3bf4875)" fill="none" x1="50" x2="56" y1="123" y2="111"/><line clip-path="url(#f2bd5b0c-d2e9-4eba-a12b-f2f0a3bf4875)" fill="none" x1="50" x2="44" y1="123" y2="111"/></g></g><g data="{&quot;name&quot;:&quot;enviarSolicitud / notificarPropietario()&quot;,&quot;modelType&quot;:&quot;Transition2&quot;}" hyper="" model-id="connector-a5.C0vmGAqDIrw04" style="pointer-events: auto; cursor: pointer;"><g fill="black" fill-opacity="1" font-family="sans-serif" font-size="11px" image-rendering="optimizeQuality" stroke="black" stroke-linecap="butt" stroke-linejoin="round" stroke-opacity="1" text-rendering="geometricPrecision" transform="translate(124,84)"><line clip-path="url(#cd66cc05-e650-4045-a5f0-e2e6f02ba70e)" fill="none" x1="50" x2="50" y1="50" y2="120"/><line clip-path="url(#cd66cc05-e650-4045-a5f0-e2e6f02ba70e)" fill="none" x1="50" x2="56" y1="120" y2="108"/><line clip-path="url(#cd66cc05-e650-4045-a5f0-e2e6f02ba70e)" fill="none" x1="50" x2="44" y1="120" y2="108"/></g></g><g data="{&quot;name&quot;:&quot;iniciarRevision / cargarSolicitud()&quot;,&quot;modelType&quot;:&quot;Transition2&quot;}" hyper="" model-id="connector-HohC0vmGAqDIrw1H" style="pointer-events: auto; cursor: pointer;"><g fill="black" fill-opacity="1" font-family="sans-serif" font-size="11px" image-rendering="optimizeQuality" stroke="black" stroke-linecap="butt" stroke-linejoin="round" stroke-opacity="1" text-rendering="geometricPrecision" transform="translate(124,195)"><line clip-path="url(#ad7d14d6-bba3-4749-b9f4-5f77ddf907a3)" fill="none" x1="50" x2="50" y1="50" y2="120"/><line clip-path="url(#ad7d14d6-bba3-4749-b9f4-5f77ddf907a3)" fill="none" x1="50" x2="56" y1="120" y2="108"/><line clip-path="url(#ad7d14d6-bba3-4749-b9f4-5f77ddf907a3)" fill="none" x1="50" x2="44" y1="120" y2="108"/></g></g><g data="{&quot;name&quot;:&quot;aprobar [cumpleRequisitos] / notificarAprobacion()&quot;,&quot;modelType&quot;:&quot;Transition2&quot;}" hyper="" model-id="connector-4KRC0vmGAqDIrw1W" style="pointer-events: auto; cursor: pointer;"><g fill="black" fill-opacity="1" font-family="sans-serif" font-size="11px" image-rendering="optimizeQuality" stroke="black" stroke-linecap="butt" stroke-linejoin="round" stroke-opacity="1" text-rendering="geometricPrecision" transform="translate(74,463)"><line clip-path="url(#9b362854-b6b4-4d47-9ac2-9afc6b1f98ba)" fill="none" x1="50" x2="50" y1="50" y2="135"/><line clip-path="url(#9b362854-b6b4-4d47-9ac2-9afc6b1f98ba)" fill="none" x1="50" x2="56" y1="135" y2="123"/><line clip-path="url(#9b362854-b6b4-4d47-9ac2-9afc6b1f98ba)" fill="none" x1="50" x2="44" y1="135" y2="123"/></g></g><g data="{&quot;name&quot;:&quot;rechazar [noCumpleRequisitos] / notificarRechazo()&quot;,&quot;modelType&quot;:&quot;Transition2&quot;}" hyper="" model-id="connector-ygxC0vmGAqDIrw1l" style="pointer-events: auto; cursor: pointer;"><g fill="black" fill-opacity="1" font-family="sans-serif" font-size="11px" image-rendering="optimizeQuality" stroke="black" stroke-linecap="butt" stroke-linejoin="round" stroke-opacity="1" text-rendering="geometricPrecision" transform="translate(174,463)"><line clip-path="url(#f5d30717-5254-49e0-8240-fb2955830607)" fill="none" x1="50" x2="50" y1="50" y2="135"/><line clip-path="url(#f5d30717-5254-49e0-8240-fb2955830607)" fill="none" x1="50" x2="56" y1="135" y2="123"/><line clip-path="url(#f5d30717-5254-49e0-8240-fb2955830607)" fill="none" x1="50" x2="44" y1="135" y2="123"/></g></g><g data="{&quot;name&quot;:&quot;cancelar / actualizarEstado()&quot;,&quot;modelType&quot;:&quot;Transition2&quot;}" hyper="" model-id="connector-Tg5C0vmGAqDIrw16" style="pointer-events: auto; cursor: pointer;"><g fill="black" fill-opacity="1" font-family="sans-serif" font-size="11px" image-rendering="optimizeQuality" stroke="black" stroke-linecap="butt" stroke-linejoin="round" stroke-opacity="1" text-rendering="geometricPrecision" transform="translate(182,175)"><line clip-path="url(#53209872-6cdc-41b3-aa25-8fecd3df979b)" fill="none" x1="50" x2="269" y1="50" y2="50"/><line clip-path="url(#53209872-6cdc-41b3-aa25-8fecd3df979b)" fill="none" x1="269" x2="269" y1="50" y2="225"/><line clip-path="url(#53209872-6cdc-41b3-aa25-8fecd3df979b)" fill="none" x1="269" x2="275" y1="225" y2="213"/><line clip-path="url(#53209872-6cdc-41b3-aa25-8fecd3df979b)" fill="none" x1="269" x2="263" y1="225" y2="213"/></g></g><g data="{&quot;name&quot;:&quot;cancelar / actualizarEstado()&quot;,&quot;modelType&quot;:&quot;Transition2&quot;}" hyper="" model-id="connector-sQ1C0vmGAqDIrw2P" style="pointer-events: auto; cursor: pointer;"><g fill="black" fill-opacity="1" font-family="sans-serif" font-size="11px" image-rendering="optimizeQuality" stroke="black" stroke-linecap="butt" stroke-linejoin="round" stroke-opacity="1" text-rendering="geometricPrecision" transform="translate(231,372)"><line clip-path="url(#5dc9a673-445c-4b79-a97e-39b1cbe68031)" fill="none" x1="50" x2="179" y1="50" y2="50"/><line clip-path="url(#5dc9a673-445c-4b79-a97e-39b1cbe68031)" fill="none" x1="179" x2="167" y1="50" y2="44"/><line clip-path="url(#5dc9a673-445c-4b79-a97e-39b1cbe68031)" fill="none" x1="179" x2="167" y1="50" y2="56"/></g></g><g data="{&quot;name&quot;:&quot;confirmarAdopcion / cerrarSolicitud()&quot;,&quot;modelType&quot;:&quot;Transition2&quot;}" hyper="" model-id="connector-pStC0vmGAqDIrw2g" style="pointer-events: auto; cursor: pointer;"><g fill="black" fill-opacity="1" font-family="sans-serif" font-size="11px" image-rendering="optimizeQuality" stroke="black" stroke-linecap="butt" stroke-linejoin="round" stroke-opacity="1" text-rendering="geometricPrecision" transform="translate(74,589)"><line clip-path="url(#582788cc-a597-433f-839b-5f4fd03943b3)" fill="none" x1="50" x2="50" y1="50" y2="138"/><line clip-path="url(#582788cc-a597-433f-839b-5f4fd03943b3)" fill="none" x1="50" x2="141" y1="138" y2="137"/><line clip-path="url(#582788cc-a597-433f-839b-5f4fd03943b3)" fill="none" x1="141" x2="129" y1="137" y2="131"/><line clip-path="url(#582788cc-a597-433f-839b-5f4fd03943b3)" fill="none" x1="141" x2="129" y1="137" y2="143"/></g></g><g data="{&quot;name&quot;:&quot;cerrarCaso / archivarSolicitud()&quot;,&quot;modelType&quot;:&quot;Transition2&quot;}" hyper="" model-id="connector-.TbC0vmGAqDIrw3J" style="pointer-events: auto; cursor: pointer;"><g fill="black" fill-opacity="1" font-family="sans-serif" font-size="11px" image-rendering="optimizeQuality" stroke="black" stroke-linecap="butt" stroke-linejoin="round" stroke-opacity="1" text-rendering="geometricPrecision" transform="translate(174,589)"><line clip-path="url(#93c0b3eb-2895-4bdb-ab10-323d90d19947)" fill="none" x1="50" x2="50" y1="50" y2="128"/><line clip-path="url(#93c0b3eb-2895-4bdb-ab10-323d90d19947)" fill="none" x1="50" x2="56" y1="128" y2="116"/><line clip-path="url(#93c0b3eb-2895-4bdb-ab10-323d90d19947)" fill="none" x1="50" x2="44" y1="128" y2="116"/></g></g><g data="{&quot;name&quot;:&quot;confirmarCancelacion / archivarSolicitud()&quot;,&quot;modelType&quot;:&quot;Transition2&quot;}" hyper="" model-id="connector-WxnC0vmGAqDIrw3g" style="pointer-events: auto; cursor: pointer;"><g fill="black" fill-opacity="1" font-family="sans-serif" font-size="11px" image-rendering="optimizeQuality" stroke="black" stroke-linecap="butt" stroke-linejoin="round" stroke-opacity="1" text-rendering="geometricPrecision" transform="translate(171,379)"><line clip-path="url(#6be090da-985a-489c-aba4-0fcd113c190c)" fill="none" x1="280" x2="280" y1="63" y2="348"/><line clip-path="url(#6be090da-985a-489c-aba4-0fcd113c190c)" fill="none" x1="280" x2="63" y1="348" y2="348"/><line clip-path="url(#6be090da-985a-489c-aba4-0fcd113c190c)" fill="none" x1="63" x2="75" y1="348" y2="354"/><line clip-path="url(#6be090da-985a-489c-aba4-0fcd113c190c)" fill="none" x1="63" x2="75" y1="348" y2="342"/></g></g><g data="{&quot;modelType&quot;:&quot;Transition2&quot;}" hyper="" model-id="connector-D.bS0vmGAqDIrxBX" style="pointer-events: auto; cursor: pointer;"><g fill="black" fill-opacity="1" font-family="sans-serif" font-size="11px" image-rendering="optimizeQuality" stroke="black" stroke-linecap="butt" stroke-linejoin="round" stroke-opacity="1" text-rendering="geometricPrecision" transform="translate(123,335)"><line clip-path="url(#06efd400-151a-4682-a00b-c882d324ce4b)" fill="none" x1="50" x2="50" y1="50" y2="66"/><line clip-path="url(#06efd400-151a-4682-a00b-c882d324ce4b)" fill="none" x1="50" x2="56" y1="66" y2="54"/><line clip-path="url(#06efd400-151a-4682-a00b-c882d324ce4b)" fill="none" x1="50" x2="44" y1="66" y2="54"/></g></g><g data="{&quot;modelType&quot;:&quot;Transition2&quot;}" hyper="" model-id="connector-N.HS0vmGAqDIrxBu" style="pointer-events: auto; cursor: pointer;"><g fill="black" fill-opacity="1" font-family="sans-serif" font-size="11px" image-rendering="optimizeQuality" stroke="black" stroke-linecap="butt" stroke-linejoin="round" stroke-opacity="1" text-rendering="geometricPrecision" transform="translate(123,392)"><line clip-path="url(#cd2fa394-481a-4619-8b8c-0eeba5becd8e)" fill="none" x1="50" x2="50" y1="50" y2="69"/><line clip-path="url(#cd2fa394-481a-4619-8b8c-0eeba5becd8e)" fill="none" x1="50" x2="56" y1="69" y2="57"/><line clip-path="url(#cd2fa394-481a-4619-8b8c-0eeba5becd8e)" fill="none" x1="50" x2="44" y1="69" y2="57"/></g></g><g fill="black" fill-opacity="1" font-family="sans-serif" font-size="11px" image-rendering="optimizeQuality" stroke="black" stroke-opacity="1" text-rendering="geometricPrecision" transform="translate(457,555)"><text clip-path="url(#9c3abe42-abe6-407b-8dc2-c348b230a5db)" stroke="none" x="6" xml:space="preserve" y="17">confirmarCancelacion</text><text clip-path="url(#9c3abe42-abe6-407b-8dc2-c348b230a5db)" stroke="none" x="12" xml:space="preserve" y="32">/ archivarSolicitud()</text></g><g fill="black" fill-opacity="1" font-family="sans-serif" font-size="11px" image-rendering="optimizeQuality" stroke="black" stroke-opacity="1" text-rendering="geometricPrecision" transform="translate(228,656)"><text clip-path="url(#dda93739-82cc-4780-a9cd-f9a6768cd2f0)" stroke="none" x="20" xml:space="preserve" y="12">cerrarCaso /</text><text clip-path="url(#dda93739-82cc-4780-a9cd-f9a6768cd2f0)" stroke="none" x="6" xml:space="preserve" y="27">archivarSolicitud()</text></g><g fill="black" fill-opacity="1" font-family="sans-serif" font-size="11px" image-rendering="optimizeQuality" stroke="black" stroke-opacity="1" text-rendering="geometricPrecision" transform="translate(7,661)"><text clip-path="url(#59c2c64d-9bcb-4366-8359-68915d46a7fa)" stroke="none" x="6" xml:space="preserve" y="13">confirmarAdopcion /</text><text clip-path="url(#59c2c64d-9bcb-4366-8359-68915d46a7fa)" stroke="none" x="16" xml:space="preserve" y="28">cerrarSolicitud()</text></g><g fill="black" fill-opacity="1" font-family="sans-serif" font-size="11px" image-rendering="optimizeQuality" stroke="black" stroke-opacity="1" text-rendering="geometricPrecision" transform="translate(290,370)"><text clip-path="url(#6c34aaf4-550d-4403-95be-0f23f4aaee88)" stroke="none" x="27" xml:space="preserve" y="23">cancelar /</text><text clip-path="url(#6c34aaf4-550d-4403-95be-0f23f4aaee88)" stroke="none" x="7" xml:space="preserve" y="38">actualizarEstado()</text></g><g fill="black" fill-opacity="1" font-family="sans-serif" font-size="11px" image-rendering="optimizeQuality" stroke="black" stroke-opacity="1" text-rendering="geometricPrecision" transform="translate(272,201)"><text clip-path="url(#96b1684d-cc2d-4aaa-9c8e-298c20774cf7)" stroke="none" x="9" xml:space="preserve" y="12">cancelar / actualizarEstado()</text></g><g fill="black" fill-opacity="1" font-family="sans-serif" font-size="11px" image-rendering="optimizeQuality" stroke="black" stroke-opacity="1" text-rendering="geometricPrecision" transform="translate(230,529)"><text clip-path="url(#40184958-4aaf-4494-bc8e-f5e493bcd4f5)" stroke="none" x="39" xml:space="preserve" y="15">rechazar</text><text clip-path="url(#40184958-4aaf-4494-bc8e-f5e493bcd4f5)" stroke="none" x="6" xml:space="preserve" y="30">[noCumpleRequisitos]</text><text clip-path="url(#40184958-4aaf-4494-bc8e-f5e493bcd4f5)" stroke="none" x="12" xml:space="preserve" y="45">/ notificarRechazo()</text></g><g fill="black" fill-opacity="1" font-family="sans-serif" font-size="11px" image-rendering="optimizeQuality" stroke="black" stroke-opacity="1" text-rendering="geometricPrecision" transform="translate(2,527)"><text clip-path="url(#642a3162-a8a4-4db1-a02a-783e9b125e3d)" stroke="none" x="38" xml:space="preserve" y="16">aprobar</text><text clip-path="url(#642a3162-a8a4-4db1-a02a-783e9b125e3d)" stroke="none" x="7" xml:space="preserve" y="31">[cumpleRequisitos] /</text><text clip-path="url(#642a3162-a8a4-4db1-a02a-783e9b125e3d)" stroke="none" x="6" xml:space="preserve" y="46">notificarAprobacion()</text></g><g fill="black" fill-opacity="1" font-family="sans-serif" font-size="11px" image-rendering="optimizeQuality" stroke="black" stroke-opacity="1" text-rendering="geometricPrecision" transform="translate(69,258)"><text clip-path="url(#f9b30b3b-8501-436b-a12a-8bddad01a97c)" stroke="none" x="10" xml:space="preserve" y="19">iniciarRevision /</text><text clip-path="url(#f9b30b3b-8501-436b-a12a-8bddad01a97c)" stroke="none" x="8" xml:space="preserve" y="34">cargarSolicitud()</text></g><g fill="black" fill-opacity="1" font-family="sans-serif" font-size="11px" image-rendering="optimizeQuality" stroke="black" stroke-opacity="1" text-rendering="geometricPrecision" transform="translate(54,149)"><text clip-path="url(#1be29bd0-8050-4398-9292-1b21e145eb42)" stroke="none" x="16" xml:space="preserve" y="16">enviarSolicitud /</text><text clip-path="url(#1be29bd0-8050-4398-9292-1b21e145eb42)" stroke="none" x="5" xml:space="preserve" y="31">notificarPropietario()</text></g><g fill="black" fill-opacity="1" font-family="sans-serif" font-size="11px" image-rendering="optimizeQuality" stroke="black" stroke-opacity="1" text-rendering="geometricPrecision" transform="translate(61,38)"><text clip-path="url(#cd50c199-1e70-45b7-bc34-ddafbdb84718)" stroke="none" x="15" xml:space="preserve" y="13">crearSolicitud /</text><text clip-path="url(#cd50c199-1e70-45b7-bc34-ddafbdb84718)" stroke="none" x="6" xml:space="preserve" y="28">registrarSolicitud()</text></g><g fill="rgb(120,120,120)" fill-opacity="1" font-size="10px" image-rendering="optimizeQuality" stroke="rgb(120,120,120)" stroke-opacity="1" text-rendering="geometricPrecision"></g></g></svg>